<?xml version="1.0" encoding="UTF-8" standalone="no"?>
<!DOCTYPE svg PUBLIC "-//W3C//DTD SVG 1.1//EN"
 "http://www.w3.org/Graphics/SVG/1.1/DTD/svg11.dtd">
<!-- Generated by graphviz version 12.2.1 (20241206.2353)
 -->
<!-- Pages: 1 -->
<svg width="973pt" height="293pt"
 viewBox="0.00 0.00 973.25 293.00" xmlns="http://www.w3.org/2000/svg" xmlns:xlink="http://www.w3.org/1999/xlink">
<g id="graph0" class="graph" transform="scale(1 1) rotate(0) translate(4 289)">
<polygon fill="#ffffff" stroke="none" points="-4,4 -4,-289 969.25,-289 969.25,4 -4,4"/>
<!-- OBC &#45; J12 -->
<g id="node1" class="node">
<title>OBC &#45; J12</title>
<polygon fill="#ffffff" stroke="black" points="161.5,-285 0,-285 0,0 161.5,0 161.5,-285"/>
<polygon fill="none" stroke="black" points="0,-261.25 0,-285 161.5,-285 161.5,-261.25 0,-261.25"/>
<text text-anchor="start" x="48.88" y="-267.7" font-family="arial" font-size="14.00">OBC &#45; J12</text>
<polygon fill="none" stroke="black" points="0,-237.5 0,-261.25 91.62,-261.25 91.62,-237.5 0,-237.5"/>
<text text-anchor="start" x="16.19" y="-243.95" font-family="arial" font-size="14.00">Picoblade</text>
<polygon fill="none" stroke="black" points="91.62,-237.5 91.62,-261.25 161.5,-261.25 161.5,-237.5 91.62,-237.5"/>
<text text-anchor="start" x="107.81" y="-243.95" font-family="arial" font-size="14.00">10&#45;pin</text>
<polygon fill="none" stroke="black" points="0,-213.75 0,-237.5 138.5,-237.5 138.5,-213.75 0,-213.75"/>
<text text-anchor="start" x="48.25" y="-220.2" font-family="arial" font-size="14.00">V_BAT</text>
<polygon fill="none" stroke="black" points="138.5,-213.75 138.5,-237.5 161.5,-237.5 161.5,-213.75 138.5,-213.75"/>
<text text-anchor="start" x="146.25" y="-220.2" font-family="arial" font-size="14.00">1</text>
<polygon fill="none" stroke="black" points="0,-190 0,-213.75 138.5,-213.75 138.5,-190 0,-190"/>
<text text-anchor="start" x="53.88" y="-196.45" font-family="arial" font-size="14.00">GND</text>
<polygon fill="none" stroke="black" points="138.5,-190 138.5,-213.75 161.5,-213.75 161.5,-190 138.5,-190"/>
<text text-anchor="start" x="146.25" y="-196.45" font-family="arial" font-size="14.00">2</text>
<polygon fill="none" stroke="black" points="0,-166.25 0,-190 138.5,-190 138.5,-166.25 0,-166.25"/>
<text text-anchor="start" x="4" y="-172.7" font-family="arial" font-size="14.00">MISO_LPUART1_RX</text>
<polygon fill="none" stroke="black" points="138.5,-166.25 138.5,-190 161.5,-190 161.5,-166.25 138.5,-166.25"/>
<text text-anchor="start" x="146.25" y="-172.7" font-family="arial" font-size="14.00">3</text>
<polygon fill="none" stroke="black" points="0,-142.5 0,-166.25 138.5,-166.25 138.5,-142.5 0,-142.5"/>
<text text-anchor="start" x="8.5" y="-148.95" font-family="arial" font-size="14.00">MOSI_LPUART_TX</text>
<polygon fill="none" stroke="black" points="138.5,-142.5 138.5,-166.25 161.5,-166.25 161.5,-142.5 138.5,-142.5"/>
<text text-anchor="start" x="146.25" y="-148.95" font-family="arial" font-size="14.00">4</text>
<polygon fill="none" stroke="black" points="0,-118.75 0,-142.5 138.5,-142.5 138.5,-118.75 0,-118.75"/>
<text text-anchor="start" x="53.88" y="-125.2" font-family="arial" font-size="14.00">GND</text>
<polygon fill="none" stroke="black" points="138.5,-118.75 138.5,-142.5 161.5,-142.5 161.5,-118.75 138.5,-118.75"/>
<text text-anchor="start" x="146.25" y="-125.2" font-family="arial" font-size="14.00">5</text>
<polygon fill="none" stroke="black" points="0,-95 0,-118.75 138.5,-118.75 138.5,-95 0,-95"/>
<text text-anchor="start" x="57.25" y="-101.45" font-family="arial" font-size="14.00">3V3</text>
<polygon fill="none" stroke="black" points="138.5,-95 138.5,-118.75 161.5,-118.75 161.5,-95 138.5,-95"/>
<text text-anchor="start" x="146.25" y="-101.45" font-family="arial" font-size="14.00">6</text>
<polygon fill="none" stroke="black" points="0,-71.25 0,-95 138.5,-95 138.5,-71.25 0,-71.25"/>
<text text-anchor="start" x="61" y="-77.7" font-family="arial" font-size="14.00">5V</text>
<polygon fill="none" stroke="black" points="138.5,-71.25 138.5,-95 161.5,-95 161.5,-71.25 138.5,-71.25"/>
<text text-anchor="start" x="146.25" y="-77.7" font-family="arial" font-size="14.00">7</text>
<polygon fill="none" stroke="black" points="0,-47.5 0,-71.25 138.5,-71.25 138.5,-47.5 0,-47.5"/>
<text text-anchor="start" x="53.88" y="-53.95" font-family="arial" font-size="14.00">GND</text>
<polygon fill="none" stroke="black" points="138.5,-47.5 138.5,-71.25 161.5,-71.25 161.5,-47.5 138.5,-47.5"/>
<text text-anchor="start" x="146.25" y="-53.95" font-family="arial" font-size="14.00">8</text>
<polygon fill="none" stroke="black" points="0,-23.75 0,-47.5 138.5,-47.5 138.5,-23.75 0,-23.75"/>
<text text-anchor="start" x="53.88" y="-30.2" font-family="arial" font-size="14.00">GND</text>
<polygon fill="none" stroke="black" points="138.5,-23.75 138.5,-47.5 161.5,-47.5 161.5,-23.75 138.5,-23.75"/>
<text text-anchor="start" x="146.25" y="-30.2" font-family="arial" font-size="14.00">9</text>
<polygon fill="none" stroke="black" points="0,0 0,-23.75 138.5,-23.75 138.5,0 0,0"/>
<text text-anchor="start" x="53.88" y="-6.45" font-family="arial" font-size="14.00">GND</text>
<polygon fill="none" stroke="black" points="138.5,0 138.5,-23.75 161.5,-23.75 161.5,0 138.5,0"/>
<text text-anchor="start" x="142.5" y="-6.45" font-family="arial" font-size="14.00">10</text>
</g>
<!-- Harness 51 &#45; Umbilical -->
<g id="node3" class="node">
<title>Harness 51 &#45; Umbilical</title>
<polygon fill="#ffffff" stroke="black" points="728.5,-271.38 305.5,-271.38 305.5,-55.62 728.5,-55.62 728.5,-271.38"/>
<polygon fill="none" stroke="black" points="305.5,-247.62 305.5,-271.38 728.5,-271.38 728.5,-247.62 305.5,-247.62"/>
<text text-anchor="start" x="448.75" y="-254.07" font-family="arial" font-size="14.00">Harness 51 &#45; Umbilical</text>
<polygon fill="none" stroke="black" points="305.5,-223.88 305.5,-247.62 728.5,-247.62 728.5,-223.88 305.5,-223.88"/>
<text text-anchor="start" x="509.88" y="-230.32" font-family="arial" font-size="14.00">5x</text>
<text text-anchor="start" x="410.25" y="-208.57" font-family="arial" font-size="14.00"> </text>
<text text-anchor="start" x="307.5" y="-188.82" font-family="arial" font-size="14.00">OBC &#45; J12:3:MISO_LPUART1_RX</text>
<text text-anchor="start" x="520.75" y="-188.82" font-family="arial" font-size="14.00"> &#160;&#160;&#160;&#160;1 &#160;&#160;&#160;</text>
<text text-anchor="start" x="566.75" y="-188.82" font-family="arial" font-size="14.00">USB&#45;to&#45;UART:1:MOSI_TX</text>
<polygon fill="#000000" stroke="none" points="305.5,-182.38 305.5,-184.38 728.5,-184.38 728.5,-182.38 305.5,-182.38"/>
<polygon fill="#ffffff" stroke="none" points="305.5,-180.38 305.5,-182.38 728.5,-182.38 728.5,-180.38 305.5,-180.38"/>
<polygon fill="#000000" stroke="none" points="305.5,-178.38 305.5,-180.38 728.5,-180.38 728.5,-178.38 305.5,-178.38"/>
<text text-anchor="start" x="312" y="-163.07" font-family="arial" font-size="14.00">OBC &#45; J12:4:MOSI_LPUART_TX</text>
<text text-anchor="start" x="520.75" y="-163.07" font-family="arial" font-size="14.00"> &#160;&#160;&#160;&#160;2 &#160;&#160;&#160;</text>
<text text-anchor="start" x="566" y="-163.07" font-family="arial" font-size="14.00">USB&#45;to&#45;UART:2:MISO_RX</text>
<polygon fill="#000000" stroke="none" points="305.5,-156.62 305.5,-158.62 728.5,-158.62 728.5,-156.62 305.5,-156.62"/>
<polygon fill="#ffffff" stroke="none" points="305.5,-154.62 305.5,-156.62 728.5,-156.62 728.5,-154.62 305.5,-154.62"/>
<polygon fill="#000000" stroke="none" points="305.5,-152.62 305.5,-154.62 728.5,-154.62 728.5,-152.62 305.5,-152.62"/>
<text text-anchor="start" x="357.38" y="-137.32" font-family="arial" font-size="14.00">OBC &#45; J12:5:GND</text>
<text text-anchor="start" x="520.75" y="-137.32" font-family="arial" font-size="14.00"> &#160;&#160;&#160;&#160;3 &#160;&#160;&#160;</text>
<text text-anchor="start" x="581.75" y="-137.32" font-family="arial" font-size="14.00">USB&#45;to&#45;UART:3:GND</text>
<polygon fill="#000000" stroke="none" points="305.5,-130.88 305.5,-132.88 728.5,-132.88 728.5,-130.88 305.5,-130.88"/>
<polygon fill="#ffffff" stroke="none" points="305.5,-128.88 305.5,-130.88 728.5,-130.88 728.5,-128.88 305.5,-128.88"/>
<polygon fill="#000000" stroke="none" points="305.5,-126.88 305.5,-128.88 728.5,-128.88 728.5,-126.88 305.5,-126.88"/>
<text text-anchor="start" x="360.75" y="-111.58" font-family="arial" font-size="14.00">OBC &#45; J12:6:3V3</text>
<text text-anchor="start" x="520.75" y="-111.58" font-family="arial" font-size="14.00"> &#160;&#160;&#160;&#160;4 &#160;&#160;&#160;</text>
<text text-anchor="start" x="588.88" y="-111.58" font-family="arial" font-size="14.00">USB&#45;to&#45;UART:4:5V</text>
<polygon fill="#000000" stroke="none" points="305.5,-105.12 305.5,-107.12 728.5,-107.12 728.5,-105.12 305.5,-105.12"/>
<polygon fill="#ffffff" stroke="none" points="305.5,-103.12 305.5,-105.12 728.5,-105.12 728.5,-103.12 305.5,-103.12"/>
<polygon fill="#000000" stroke="none" points="305.5,-101.12 305.5,-103.12 728.5,-103.12 728.5,-101.12 305.5,-101.12"/>
<text text-anchor="start" x="364.5" y="-85.83" font-family="arial" font-size="14.00">OBC &#45; J12:7:5V</text>
<text text-anchor="start" x="520.75" y="-85.83" font-family="arial" font-size="14.00"> &#160;&#160;&#160;&#160;5 &#160;&#160;&#160;</text>
<text text-anchor="start" x="585.12" y="-85.83" font-family="arial" font-size="14.00">USB&#45;to&#45;UART:5:3V3</text>
<polygon fill="#000000" stroke="none" points="305.5,-79.38 305.5,-81.38 728.5,-81.38 728.5,-79.38 305.5,-79.38"/>
<polygon fill="#ffffff" stroke="none" points="305.5,-77.38 305.5,-79.38 728.5,-79.38 728.5,-77.38 305.5,-77.38"/>
<polygon fill="#000000" stroke="none" points="305.5,-75.38 305.5,-77.38 728.5,-77.38 728.5,-75.38 305.5,-75.38"/>
<text text-anchor="start" x="410.25" y="-60.08" font-family="arial" font-size="14.00"> </text>
</g>
<!-- OBC &#45; J12&#45;&#45;Harness 51 &#45; Umbilical -->
<g id="edge1" class="edge">
<title>OBC &#45; J12:e&#45;&#45;Harness 51 &#45; Umbilical:w</title>
<path fill="none" stroke="#000000" stroke-width="2" d="M161.5,-176.13C225.92,-176.17 241.88,-179.42 305.5,-179.38"/>
<path fill="none" stroke="#ffffff" stroke-width="2" d="M161.5,-178.12C225.52,-178.13 241.48,-181.38 305.5,-181.38"/>
<path fill="none" stroke="#000000" stroke-width="2" d="M161.5,-180.12C225.12,-180.08 241.08,-183.33 305.5,-183.37"/>
</g>
<!-- OBC &#45; J12&#45;&#45;Harness 51 &#45; Umbilical -->
<g id="edge3" class="edge">
<title>OBC &#45; J12:e&#45;&#45;Harness 51 &#45; Umbilical:w</title>
<path fill="none" stroke="#000000" stroke-width="2" d="M161.5,-152.38C225.66,-152.38 241.65,-153.63 305.5,-153.63"/>
<path fill="none" stroke="#ffffff" stroke-width="2" d="M161.5,-154.37C225.5,-154.37 241.5,-155.62 305.5,-155.62"/>
<path fill="none" stroke="#000000" stroke-width="2" d="M161.5,-156.37C225.35,-156.37 241.34,-157.62 305.5,-157.62"/>
</g>
<!-- OBC &#45; J12&#45;&#45;Harness 51 &#45; Umbilical -->
<g id="edge5" class="edge">
<title>OBC &#45; J12:e&#45;&#45;Harness 51 &#45; Umbilical:w</title>
<path fill="none" stroke="#000000" stroke-width="2" d="M161.5,-128.63C225.41,-128.63 241.41,-127.88 305.5,-127.88"/>
<path fill="none" stroke="#ffffff" stroke-width="2" d="M161.5,-130.62C225.5,-130.62 241.5,-129.88 305.5,-129.88"/>
<path fill="none" stroke="#000000" stroke-width="2" d="M161.5,-132.62C225.59,-132.62 241.59,-131.87 305.5,-131.87"/>
</g>
<!-- OBC &#45; J12&#45;&#45;Harness 51 &#45; Umbilical -->
<g id="edge7" class="edge">
<title>OBC &#45; J12:e&#45;&#45;Harness 51 &#45; Umbilical:w</title>
<path fill="none" stroke="#000000" stroke-width="2" d="M161.5,-104.88C225.17,-104.9 241.15,-102.15 305.5,-102.13"/>
<path fill="none" stroke="#ffffff" stroke-width="2" d="M161.5,-106.87C225.51,-106.88 241.49,-104.12 305.5,-104.12"/>
<path fill="none" stroke="#000000" stroke-width="2" d="M161.5,-108.87C225.85,-108.85 241.83,-106.1 305.5,-106.12"/>
</g>
<!-- OBC &#45; J12&#45;&#45;Harness 51 &#45; Umbilical -->
<g id="edge9" class="edge">
<title>OBC &#45; J12:e&#45;&#45;Harness 51 &#45; Umbilical:w</title>
<path fill="none" stroke="#000000" stroke-width="2" d="M161.5,-81.13C224.96,-81.21 240.89,-76.46 305.5,-76.38"/>
<path fill="none" stroke="#ffffff" stroke-width="2" d="M161.5,-83.12C225.53,-83.12 241.47,-78.37 305.5,-78.37"/>
<path fill="none" stroke="#000000" stroke-width="2" d="M161.5,-85.12C226.11,-85.04 242.04,-80.29 305.5,-80.37"/>
</g>
<!-- USB&#45;to&#45;UART -->
<g id="node2" class="node">
<title>USB&#45;to&#45;UART</title>
<polygon fill="#ffffff" stroke="black" points="965.25,-237.62 872.5,-237.62 872.5,-71.38 965.25,-71.38 965.25,-237.62"/>
<polygon fill="none" stroke="black" points="872.5,-213.88 872.5,-237.62 965.25,-237.62 965.25,-213.88 872.5,-213.88"/>
<text text-anchor="start" x="876.5" y="-220.32" font-family="arial" font-size="14.00">USB&#45;to&#45;UART</text>
<polygon fill="none" stroke="black" points="872.5,-190.12 872.5,-213.88 965.25,-213.88 965.25,-190.12 872.5,-190.12"/>
<text text-anchor="start" x="903.88" y="-196.57" font-family="arial" font-size="14.00">5&#45;pin</text>
<polygon fill="none" stroke="black" points="872.5,-166.38 872.5,-190.12 891.5,-190.12 891.5,-166.38 872.5,-166.38"/>
<text text-anchor="start" x="878.25" y="-172.82" font-family="arial" font-size="14.00">1</text>
<polygon fill="none" stroke="black" points="891.5,-166.38 891.5,-190.12 965.25,-190.12 965.25,-166.38 891.5,-166.38"/>
<text text-anchor="start" x="898" y="-172.82" font-family="arial" font-size="14.00">MOSI_TX</text>
<polygon fill="none" stroke="black" points="872.5,-142.62 872.5,-166.38 891.5,-166.38 891.5,-142.62 872.5,-142.62"/>
<text text-anchor="start" x="878.25" y="-149.07" font-family="arial" font-size="14.00">2</text>
<polygon fill="none" stroke="black" points="891.5,-142.62 891.5,-166.38 965.25,-166.38 965.25,-142.62 891.5,-142.62"/>
<text text-anchor="start" x="897.25" y="-149.07" font-family="arial" font-size="14.00">MISO_RX</text>
<polygon fill="none" stroke="black" points="872.5,-118.88 872.5,-142.62 891.5,-142.62 891.5,-118.88 872.5,-118.88"/>
<text text-anchor="start" x="878.25" y="-125.33" font-family="arial" font-size="14.00">3</text>
<polygon fill="none" stroke="black" points="891.5,-118.88 891.5,-142.62 965.25,-142.62 965.25,-118.88 891.5,-118.88"/>
<text text-anchor="start" x="913" y="-125.33" font-family="arial" font-size="14.00">GND</text>
<polygon fill="none" stroke="black" points="872.5,-95.12 872.5,-118.88 891.5,-118.88 891.5,-95.12 872.5,-95.12"/>
<text text-anchor="start" x="878.25" y="-101.58" font-family="arial" font-size="14.00">4</text>
<polygon fill="none" stroke="black" points="891.5,-95.12 891.5,-118.88 965.25,-118.88 965.25,-95.12 891.5,-95.12"/>
<text text-anchor="start" x="920.12" y="-101.58" font-family="arial" font-size="14.00">5V</text>
<polygon fill="none" stroke="black" points="872.5,-71.38 872.5,-95.12 891.5,-95.12 891.5,-71.38 872.5,-71.38"/>
<text text-anchor="start" x="878.25" y="-77.83" font-family="arial" font-size="14.00">5</text>
<polygon fill="none" stroke="black" points="891.5,-71.38 891.5,-95.12 965.25,-95.12 965.25,-71.38 891.5,-71.38"/>
<text text-anchor="start" x="916.38" y="-77.83" font-family="arial" font-size="14.00">3V3</text>
</g>
<!-- Harness 51 &#45; Umbilical&#45;&#45;USB&#45;to&#45;UART -->
<g id="edge2" class="edge">
<title>Harness 51 &#45; Umbilical:e&#45;&#45;USB&#45;to&#45;UART:w</title>
<path fill="none" stroke="#000000" stroke-width="2" d="M728.5,-179.38C792.13,-179.41 808.1,-176.29 872.5,-176.25"/>
<path fill="none" stroke="#ffffff" stroke-width="2" d="M728.5,-181.38C792.52,-181.38 808.48,-178.25 872.5,-178.25"/>
<path fill="none" stroke="#000000" stroke-width="2" d="M728.5,-183.37C792.9,-183.34 808.87,-180.21 872.5,-180.25"/>
</g>
<!-- Harness 51 &#45; Umbilical&#45;&#45;USB&#45;to&#45;UART -->
<g id="edge4" class="edge">
<title>Harness 51 &#45; Umbilical:e&#45;&#45;USB&#45;to&#45;UART:w</title>
<path fill="none" stroke="#000000" stroke-width="2" d="M728.5,-153.63C792.36,-153.63 808.36,-152.5 872.5,-152.5"/>
<path fill="none" stroke="#ffffff" stroke-width="2" d="M728.5,-155.62C792.5,-155.62 808.5,-154.5 872.5,-154.5"/>
<path fill="none" stroke="#000000" stroke-width="2" d="M728.5,-157.62C792.64,-157.62 808.64,-156.5 872.5,-156.5"/>
</g>
<!-- Harness 51 &#45; Umbilical&#45;&#45;USB&#45;to&#45;UART -->
<g id="edge6" class="edge">
<title>Harness 51 &#45; Umbilical:e&#45;&#45;USB&#45;to&#45;UART:w</title>
<path fill="none" stroke="#000000" stroke-width="2" d="M728.5,-127.88C792.61,-127.88 808.61,-128.75 872.5,-128.75"/>
<path fill="none" stroke="#ffffff" stroke-width="2" d="M728.5,-129.88C792.5,-129.88 808.5,-130.75 872.5,-130.75"/>
<path fill="none" stroke="#000000" stroke-width="2" d="M728.5,-131.87C792.39,-131.87 808.39,-132.75 872.5,-132.75"/>
</g>
<!-- Harness 51 &#45; Umbilical&#45;&#45;USB&#45;to&#45;UART -->
<g id="edge8" class="edge">
<title>Harness 51 &#45; Umbilical:e&#45;&#45;USB&#45;to&#45;UART:w</title>
<path fill="none" stroke="#000000" stroke-width="2" d="M728.5,-102.13C792.87,-102.16 808.84,-105.03 872.5,-105"/>
<path fill="none" stroke="#ffffff" stroke-width="2" d="M728.5,-104.13C792.51,-104.12 808.49,-107 872.5,-107"/>
<path fill="none" stroke="#000000" stroke-width="2" d="M728.5,-106.12C792.16,-106.09 808.13,-108.97 872.5,-109"/>
</g>
<!-- Harness 51 &#45; Umbilical&#45;&#45;USB&#45;to&#45;UART -->
<g id="edge10" class="edge">
<title>Harness 51 &#45; Umbilical:e&#45;&#45;USB&#45;to&#45;UART:w</title>
<path fill="none" stroke="#000000" stroke-width="2" d="M728.5,-76.38C793.12,-76.46 809.05,-81.34 872.5,-81.25"/>
<path fill="none" stroke="#ffffff" stroke-width="2" d="M728.5,-78.38C792.54,-78.38 808.46,-83.25 872.5,-83.25"/>
<path fill="none" stroke="#000000" stroke-width="2" d="M728.5,-80.37C791.95,-80.29 807.88,-85.16 872.5,-85.25"/>
</g>
</g>
</svg>
