<?xml version="1.0" encoding="UTF-8" standalone="no"?>
<!DOCTYPE svg PUBLIC "-//W3C//DTD SVG 1.1//EN"
 "http://www.w3.org/Graphics/SVG/1.1/DTD/svg11.dtd">
<!-- Generated by graphviz version 12.2.1 (20241206.2353)
 -->
<!-- Pages: 1 -->
<svg width="1158pt" height="412pt"
 viewBox="0.00 0.00 1157.50 411.75" xmlns="http://www.w3.org/2000/svg" xmlns:xlink="http://www.w3.org/1999/xlink">
<g id="graph0" class="graph" transform="scale(1 1) rotate(0) translate(4 407.75)">
<polygon fill="#ffffff" stroke="none" points="-4,4 -4,-407.75 1153.5,-407.75 1153.5,4 -4,4"/>
<!-- OBC &#45; J14 -->
<g id="node1" class="node">
<title>OBC &#45; J14</title>
<polygon fill="#ffffff" stroke="black" points="137.5,-191.12 0,-191.12 0,-48.62 137.5,-48.62 137.5,-191.12"/>
<polygon fill="none" stroke="black" points="0,-167.38 0,-191.12 137.5,-191.12 137.5,-167.38 0,-167.38"/>
<text text-anchor="start" x="36.88" y="-173.82" font-family="arial" font-size="14.00">OBC &#45; J14</text>
<polygon fill="none" stroke="black" points="0,-143.62 0,-167.38 83.38,-167.38 83.38,-143.62 0,-143.62"/>
<text text-anchor="start" x="12.06" y="-150.07" font-family="arial" font-size="14.00">Picoblade</text>
<polygon fill="none" stroke="black" points="83.38,-143.62 83.38,-167.38 137.5,-167.38 137.5,-143.62 83.38,-143.62"/>
<text text-anchor="start" x="95.44" y="-150.07" font-family="arial" font-size="14.00">4&#45;pin</text>
<polygon fill="none" stroke="black" points="0,-119.88 0,-143.62 122,-143.62 122,-119.88 0,-119.88"/>
<text text-anchor="start" x="4" y="-126.33" font-family="arial" font-size="14.00">MISO_UART5_RX</text>
<polygon fill="none" stroke="black" points="122,-119.88 122,-143.62 137.5,-143.62 137.5,-119.88 122,-119.88"/>
<text text-anchor="start" x="126" y="-126.33" font-family="arial" font-size="14.00">1</text>
<polygon fill="none" stroke="black" points="0,-96.12 0,-119.88 122,-119.88 122,-96.12 0,-96.12"/>
<text text-anchor="start" x="4.75" y="-102.58" font-family="arial" font-size="14.00">MISO_UART5_TX</text>
<polygon fill="none" stroke="black" points="122,-96.12 122,-119.88 137.5,-119.88 137.5,-96.12 122,-96.12"/>
<text text-anchor="start" x="126" y="-102.58" font-family="arial" font-size="14.00">2</text>
<polygon fill="none" stroke="black" points="0,-72.38 0,-96.12 122,-96.12 122,-72.38 0,-72.38"/>
<text text-anchor="start" x="45.62" y="-78.83" font-family="arial" font-size="14.00">GND</text>
<polygon fill="none" stroke="black" points="122,-72.38 122,-96.12 137.5,-96.12 137.5,-72.38 122,-72.38"/>
<text text-anchor="start" x="126" y="-78.83" font-family="arial" font-size="14.00">3</text>
<polygon fill="none" stroke="black" points="0,-48.62 0,-72.38 122,-72.38 122,-48.62 0,-48.62"/>
<text text-anchor="start" x="45.62" y="-55.08" font-family="arial" font-size="14.00">GND</text>
<polygon fill="none" stroke="black" points="122,-48.62 122,-72.38 137.5,-72.38 137.5,-48.62 122,-48.62"/>
<text text-anchor="start" x="126" y="-55.08" font-family="arial" font-size="14.00">4</text>
</g>
<!-- Harness 15 &#45; EPS UART -->
<g id="node3" class="node">
<title>Harness 15 &#45; EPS UART</title>
<polygon fill="#ffffff" stroke="black" points="837.25,-223.88 281.5,-223.88 281.5,-33.88 837.25,-33.88 837.25,-223.88"/>
<polygon fill="none" stroke="black" points="281.5,-200.12 281.5,-223.88 837.25,-223.88 837.25,-200.12 281.5,-200.12"/>
<text text-anchor="start" x="485.12" y="-206.57" font-family="arial" font-size="14.00">Harness 15 &#45; EPS UART</text>
<polygon fill="none" stroke="black" points="281.5,-176.38 281.5,-200.12 837.25,-200.12 837.25,-176.38 281.5,-176.38"/>
<text text-anchor="start" x="552.25" y="-182.82" font-family="arial" font-size="14.00">4x</text>
<text text-anchor="start" x="378" y="-161.07" font-family="arial" font-size="14.00"> </text>
<text text-anchor="start" x="283.5" y="-141.32" font-family="arial" font-size="14.00">OBC &#45; J14:1:MISO_UART5_RX</text>
<text text-anchor="start" x="482.88" y="-141.32" font-family="arial" font-size="14.00"> &#160;&#160;&#160;&#160;1:VT &#160;&#160;&#160;</text>
<text text-anchor="start" x="551.75" y="-141.32" font-family="arial" font-size="14.00">EPS &#45; J9 Umbilical 2:14:UART_TX_3V3_OUT1</text>
<polygon fill="#000000" stroke="none" points="281.5,-134.88 281.5,-136.88 837.25,-136.88 837.25,-134.88 281.5,-134.88"/>
<polygon fill="#8000ff" stroke="none" points="281.5,-132.88 281.5,-134.88 837.25,-134.88 837.25,-132.88 281.5,-132.88"/>
<polygon fill="#000000" stroke="none" points="281.5,-130.88 281.5,-132.88 837.25,-132.88 837.25,-130.88 281.5,-130.88"/>
<text text-anchor="start" x="284.25" y="-115.58" font-family="arial" font-size="14.00">OBC &#45; J14:2:MISO_UART5_TX</text>
<text text-anchor="start" x="482.5" y="-115.58" font-family="arial" font-size="14.00"> &#160;&#160;&#160;&#160;2:BK &#160;&#160;&#160;</text>
<text text-anchor="start" x="558.88" y="-115.58" font-family="arial" font-size="14.00">EPS &#45; J9 Umbilical 2:15:UART_RX_3V3_IN1</text>
<polygon fill="#000000" stroke="none" points="281.5,-109.12 281.5,-111.12 837.25,-111.12 837.25,-109.12 281.5,-109.12"/>
<polygon fill="#000000" stroke="none" points="281.5,-107.12 281.5,-109.12 837.25,-109.12 837.25,-107.12 281.5,-107.12"/>
<polygon fill="#000000" stroke="none" points="281.5,-105.12 281.5,-107.12 837.25,-107.12 837.25,-105.12 281.5,-105.12"/>
<text text-anchor="start" x="325.12" y="-89.83" font-family="arial" font-size="14.00">OBC &#45; J14:3:GND</text>
<text text-anchor="start" x="480.25" y="-89.83" font-family="arial" font-size="14.00"> &#160;&#160;&#160;&#160;3:OG &#160;&#160;&#160;</text>
<text text-anchor="start" x="608.75" y="-89.83" font-family="arial" font-size="14.00">EPS &#45; J9 Umbilical 2:8:GND</text>
<polygon fill="#000000" stroke="none" points="281.5,-83.38 281.5,-85.38 837.25,-85.38 837.25,-83.38 281.5,-83.38"/>
<polygon fill="#ff8000" stroke="none" points="281.5,-81.38 281.5,-83.38 837.25,-83.38 837.25,-81.38 281.5,-81.38"/>
<polygon fill="#000000" stroke="none" points="281.5,-79.38 281.5,-81.38 837.25,-81.38 837.25,-79.38 281.5,-79.38"/>
<text text-anchor="start" x="325.12" y="-64.08" font-family="arial" font-size="14.00">OBC &#45; J14:4:GND</text>
<text text-anchor="start" x="482.5" y="-64.08" font-family="arial" font-size="14.00"> &#160;&#160;&#160;&#160;4:YE &#160;&#160;&#160;</text>
<text text-anchor="start" x="608.75" y="-64.08" font-family="arial" font-size="14.00">EPS &#45; J9 Umbilical 2:9:GND</text>
<polygon fill="#000000" stroke="none" points="281.5,-57.62 281.5,-59.62 837.25,-59.62 837.25,-57.62 281.5,-57.62"/>
<polygon fill="#ffff00" stroke="none" points="281.5,-55.62 281.5,-57.62 837.25,-57.62 837.25,-55.62 281.5,-55.62"/>
<polygon fill="#000000" stroke="none" points="281.5,-53.62 281.5,-55.62 837.25,-55.62 837.25,-53.62 281.5,-53.62"/>
<text text-anchor="start" x="378" y="-38.33" font-family="arial" font-size="14.00"> </text>
</g>
<!-- OBC &#45; J14&#45;&#45;Harness 15 &#45; EPS UART -->
<g id="edge1" class="edge">
<title>OBC &#45; J14:e&#45;&#45;Harness 15 &#45; EPS UART:w</title>
<path fill="none" stroke="#000000" stroke-width="2" d="M137.5,-129.75C201.77,-129.77 217.76,-131.89 281.5,-131.88"/>
<path fill="none" stroke="#8000ff" stroke-width="2" d="M137.5,-131.75C201.51,-131.75 217.49,-133.88 281.5,-133.88"/>
<path fill="none" stroke="#000000" stroke-width="2" d="M137.5,-133.75C201.24,-133.73 217.23,-135.86 281.5,-135.87"/>
</g>
<!-- OBC &#45; J14&#45;&#45;Harness 15 &#45; EPS UART -->
<g id="edge3" class="edge">
<title>OBC &#45; J14:e&#45;&#45;Harness 15 &#45; EPS UART:w</title>
<path fill="none" stroke="#000000" stroke-width="2" d="M137.5,-106C201.52,-106 217.52,-106.13 281.5,-106.13"/>
<path fill="none" stroke="#000000" stroke-width="2" d="M137.5,-108C201.5,-108 217.5,-108.12 281.5,-108.12"/>
<path fill="none" stroke="#000000" stroke-width="2" d="M137.5,-110C201.48,-110 217.48,-110.12 281.5,-110.12"/>
</g>
<!-- OBC &#45; J14&#45;&#45;Harness 15 &#45; EPS UART -->
<g id="edge5" class="edge">
<title>OBC &#45; J14:e&#45;&#45;Harness 15 &#45; EPS UART:w</title>
<path fill="none" stroke="#000000" stroke-width="2" d="M137.5,-82.25C201.27,-82.26 217.26,-80.39 281.5,-80.38"/>
<path fill="none" stroke="#ff8000" stroke-width="2" d="M137.5,-84.25C201.51,-84.25 217.49,-82.38 281.5,-82.37"/>
<path fill="none" stroke="#000000" stroke-width="2" d="M137.5,-86.25C201.74,-86.24 217.73,-84.36 281.5,-84.37"/>
</g>
<!-- OBC &#45; J14&#45;&#45;Harness 15 &#45; EPS UART -->
<g id="edge7" class="edge">
<title>OBC &#45; J14:e&#45;&#45;Harness 15 &#45; EPS UART:w</title>
<path fill="none" stroke="#000000" stroke-width="2" d="M137.5,-58.5C201.05,-58.56 217,-54.68 281.5,-54.63"/>
<path fill="none" stroke="#ffff00" stroke-width="2" d="M137.5,-60.5C201.52,-60.5 217.48,-56.62 281.5,-56.63"/>
<path fill="none" stroke="#000000" stroke-width="2" d="M137.5,-62.5C202,-62.44 217.95,-58.57 281.5,-58.62"/>
</g>
<!-- EPS &#45; J9 Umbilical 2 -->
<g id="node2" class="node">
<title>EPS &#45; J9 Umbilical 2</title>
<polygon fill="#ffffff" stroke="black" points="1149.5,-403.75 981.25,-403.75 981.25,0 1149.5,0 1149.5,-403.75"/>
<polygon fill="none" stroke="black" points="981.25,-380 981.25,-403.75 1149.5,-403.75 1149.5,-380 981.25,-380"/>
<text text-anchor="start" x="1003.5" y="-386.45" font-family="arial" font-size="14.00">EPS &#45; J9 Umbilical 2</text>
<polygon fill="none" stroke="black" points="981.25,-356.25 981.25,-380 1075.5,-380 1075.5,-356.25 981.25,-356.25"/>
<text text-anchor="start" x="999.5" y="-362.7" font-family="arial" font-size="14.00">Microlock</text>
<polygon fill="none" stroke="black" points="1075.5,-356.25 1075.5,-380 1149.5,-380 1149.5,-356.25 1075.5,-356.25"/>
<text text-anchor="start" x="1093.75" y="-362.7" font-family="arial" font-size="14.00">15&#45;pin</text>
<polygon fill="none" stroke="black" points="981.25,-332.5 981.25,-356.25 1004.25,-356.25 1004.25,-332.5 981.25,-332.5"/>
<text text-anchor="start" x="989" y="-338.95" font-family="arial" font-size="14.00">1</text>
<polygon fill="none" stroke="black" points="1004.25,-332.5 1004.25,-356.25 1149.5,-356.25 1149.5,-332.5 1004.25,-332.5"/>
<text text-anchor="start" x="1042" y="-338.95" font-family="arial" font-size="14.00">RAIL_PWR</text>
<polygon fill="none" stroke="black" points="981.25,-308.75 981.25,-332.5 1004.25,-332.5 1004.25,-308.75 981.25,-308.75"/>
<text text-anchor="start" x="989" y="-315.2" font-family="arial" font-size="14.00">2</text>
<polygon fill="none" stroke="black" points="1004.25,-308.75 1004.25,-332.5 1149.5,-332.5 1149.5,-308.75 1004.25,-308.75"/>
<text text-anchor="start" x="1042" y="-315.2" font-family="arial" font-size="14.00">RAIL_PWR</text>
<polygon fill="none" stroke="black" points="981.25,-285 981.25,-308.75 1004.25,-308.75 1004.25,-285 981.25,-285"/>
<text text-anchor="start" x="989" y="-291.45" font-family="arial" font-size="14.00">3</text>
<polygon fill="none" stroke="black" points="1004.25,-285 1004.25,-308.75 1149.5,-308.75 1149.5,-285 1004.25,-285"/>
<text text-anchor="start" x="1042" y="-291.45" font-family="arial" font-size="14.00">RAIL_PWR</text>
<polygon fill="none" stroke="black" points="981.25,-261.25 981.25,-285 1004.25,-285 1004.25,-261.25 981.25,-261.25"/>
<text text-anchor="start" x="989" y="-267.7" font-family="arial" font-size="14.00">4</text>
<polygon fill="none" stroke="black" points="1004.25,-261.25 1004.25,-285 1149.5,-285 1149.5,-261.25 1004.25,-261.25"/>
<text text-anchor="start" x="1042" y="-267.7" font-family="arial" font-size="14.00">RAIL_PWR</text>
<polygon fill="none" stroke="black" points="981.25,-237.5 981.25,-261.25 1004.25,-261.25 1004.25,-237.5 981.25,-237.5"/>
<text text-anchor="start" x="989" y="-243.95" font-family="arial" font-size="14.00">5</text>
<polygon fill="none" stroke="black" points="1004.25,-237.5 1004.25,-261.25 1149.5,-261.25 1149.5,-237.5 1004.25,-237.5"/>
<text text-anchor="start" x="1061.5" y="-243.95" font-family="arial" font-size="14.00">GND</text>
<polygon fill="none" stroke="black" points="981.25,-213.75 981.25,-237.5 1004.25,-237.5 1004.25,-213.75 981.25,-213.75"/>
<text text-anchor="start" x="989" y="-220.2" font-family="arial" font-size="14.00">6</text>
<polygon fill="none" stroke="black" points="1004.25,-213.75 1004.25,-237.5 1149.5,-237.5 1149.5,-213.75 1004.25,-213.75"/>
<text text-anchor="start" x="1061.5" y="-220.2" font-family="arial" font-size="14.00">GND</text>
<polygon fill="none" stroke="black" points="981.25,-190 981.25,-213.75 1004.25,-213.75 1004.25,-190 981.25,-190"/>
<text text-anchor="start" x="989" y="-196.45" font-family="arial" font-size="14.00">7</text>
<polygon fill="none" stroke="black" points="1004.25,-190 1004.25,-213.75 1149.5,-213.75 1149.5,-190 1004.25,-190"/>
<text text-anchor="start" x="1061.5" y="-196.45" font-family="arial" font-size="14.00">GND</text>
<polygon fill="none" stroke="black" points="981.25,-166.25 981.25,-190 1004.25,-190 1004.25,-166.25 981.25,-166.25"/>
<text text-anchor="start" x="989" y="-172.7" font-family="arial" font-size="14.00">8</text>
<polygon fill="none" stroke="black" points="1004.25,-166.25 1004.25,-190 1149.5,-190 1149.5,-166.25 1004.25,-166.25"/>
<text text-anchor="start" x="1061.5" y="-172.7" font-family="arial" font-size="14.00">GND</text>
<polygon fill="none" stroke="black" points="981.25,-142.5 981.25,-166.25 1004.25,-166.25 1004.25,-142.5 981.25,-142.5"/>
<text text-anchor="start" x="989" y="-148.95" font-family="arial" font-size="14.00">9</text>
<polygon fill="none" stroke="black" points="1004.25,-142.5 1004.25,-166.25 1149.5,-166.25 1149.5,-142.5 1004.25,-142.5"/>
<text text-anchor="start" x="1061.5" y="-148.95" font-family="arial" font-size="14.00">GND</text>
<polygon fill="none" stroke="black" points="981.25,-118.75 981.25,-142.5 1004.25,-142.5 1004.25,-118.75 981.25,-118.75"/>
<text text-anchor="start" x="985.25" y="-125.2" font-family="arial" font-size="14.00">10</text>
<polygon fill="none" stroke="black" points="1004.25,-118.75 1004.25,-142.5 1149.5,-142.5 1149.5,-118.75 1004.25,-118.75"/>
<text text-anchor="start" x="1021.75" y="-125.2" font-family="arial" font-size="14.00">UART_RX_H2_21</text>
<polygon fill="none" stroke="black" points="981.25,-95 981.25,-118.75 1004.25,-118.75 1004.25,-95 981.25,-95"/>
<text text-anchor="start" x="985.62" y="-101.45" font-family="arial" font-size="14.00">11</text>
<polygon fill="none" stroke="black" points="1004.25,-95 1004.25,-118.75 1149.5,-118.75 1149.5,-95 1004.25,-95"/>
<text text-anchor="start" x="1022.5" y="-101.45" font-family="arial" font-size="14.00">UART_TX_H2_22</text>
<polygon fill="none" stroke="black" points="981.25,-71.25 981.25,-95 1004.25,-95 1004.25,-71.25 981.25,-71.25"/>
<text text-anchor="start" x="985.25" y="-77.7" font-family="arial" font-size="14.00">12</text>
<polygon fill="none" stroke="black" points="1004.25,-71.25 1004.25,-95 1149.5,-95 1149.5,-71.25 1004.25,-71.25"/>
<text text-anchor="start" x="1032.62" y="-77.7" font-family="arial" font-size="14.00">I2C_EXT_SCL</text>
<polygon fill="none" stroke="black" points="981.25,-47.5 981.25,-71.25 1004.25,-71.25 1004.25,-47.5 981.25,-47.5"/>
<text text-anchor="start" x="985.25" y="-53.95" font-family="arial" font-size="14.00">13</text>
<polygon fill="none" stroke="black" points="1004.25,-47.5 1004.25,-71.25 1149.5,-71.25 1149.5,-47.5 1004.25,-47.5"/>
<text text-anchor="start" x="1031.88" y="-53.95" font-family="arial" font-size="14.00">I2C_EXT_SDA</text>
<polygon fill="none" stroke="black" points="981.25,-23.75 981.25,-47.5 1004.25,-47.5 1004.25,-23.75 981.25,-23.75"/>
<text text-anchor="start" x="985.25" y="-30.2" font-family="arial" font-size="14.00">14</text>
<polygon fill="none" stroke="black" points="1004.25,-23.75 1004.25,-47.5 1149.5,-47.5 1149.5,-23.75 1004.25,-23.75"/>
<text text-anchor="start" x="1008.25" y="-30.2" font-family="arial" font-size="14.00">UART_TX_3V3_OUT1</text>
<polygon fill="none" stroke="black" points="981.25,0 981.25,-23.75 1004.25,-23.75 1004.25,0 981.25,0"/>
<text text-anchor="start" x="985.25" y="-6.45" font-family="arial" font-size="14.00">15</text>
<polygon fill="none" stroke="black" points="1004.25,0 1004.25,-23.75 1149.5,-23.75 1149.5,0 1004.25,0"/>
<text text-anchor="start" x="1015.38" y="-6.45" font-family="arial" font-size="14.00">UART_RX_3V3_IN1</text>
</g>
<!-- Harness 15 &#45; EPS UART&#45;&#45;EPS &#45; J9 Umbilical 2 -->
<g id="edge2" class="edge">
<title>Harness 15 &#45; EPS UART:e&#45;&#45;EPS &#45; J9 Umbilical 2:w</title>
<path fill="none" stroke="#000000" stroke-width="2" d="M837.25,-131.88C912.74,-134.1 901.78,-35.85 981.25,-33.63"/>
<path fill="none" stroke="#8000ff" stroke-width="2" d="M837.25,-133.88C914.73,-133.88 903.77,-35.62 981.25,-35.62"/>
<path fill="none" stroke="#000000" stroke-width="2" d="M837.25,-135.87C916.72,-133.65 905.76,-35.4 981.25,-37.62"/>
</g>
<!-- Harness 15 &#45; EPS UART&#45;&#45;EPS &#45; J9 Umbilical 2 -->
<g id="edge4" class="edge">
<title>Harness 15 &#45; EPS UART:e&#45;&#45;EPS &#45; J9 Umbilical 2:w</title>
<path fill="none" stroke="#000000" stroke-width="2" d="M837.25,-106.13C912.24,-108.33 902.28,-12.08 981.25,-9.88"/>
<path fill="none" stroke="#000000" stroke-width="2" d="M837.25,-108.12C914.23,-108.13 904.27,-11.88 981.25,-11.88"/>
<path fill="none" stroke="#000000" stroke-width="2" d="M837.25,-110.12C916.22,-107.92 906.26,-11.67 981.25,-13.87"/>
</g>
<!-- Harness 15 &#45; EPS UART&#45;&#45;EPS &#45; J9 Umbilical 2 -->
<g id="edge6" class="edge">
<title>Harness 15 &#45; EPS UART:e&#45;&#45;EPS &#45; J9 Umbilical 2:w</title>
<path fill="none" stroke="#000000" stroke-width="2" d="M837.25,-80.38C916.1,-82.58 906.38,-178.33 981.25,-176.13"/>
<path fill="none" stroke="#ff8000" stroke-width="2" d="M837.25,-82.38C914.11,-82.38 904.39,-178.12 981.25,-178.12"/>
<path fill="none" stroke="#000000" stroke-width="2" d="M837.25,-84.37C912.12,-82.17 902.4,-177.92 981.25,-180.12"/>
</g>
<!-- Harness 15 &#45; EPS UART&#45;&#45;EPS &#45; J9 Umbilical 2 -->
<g id="edge8" class="edge">
<title>Harness 15 &#45; EPS UART:e&#45;&#45;EPS &#45; J9 Umbilical 2:w</title>
<path fill="none" stroke="#000000" stroke-width="2" d="M837.25,-54.63C916.59,-56.84 905.89,-154.59 981.25,-152.38"/>
<path fill="none" stroke="#ffff00" stroke-width="2" d="M837.25,-56.62C914.6,-56.62 903.9,-154.37 981.25,-154.38"/>
<path fill="none" stroke="#000000" stroke-width="2" d="M837.25,-58.62C912.61,-56.41 901.91,-154.16 981.25,-156.37"/>
</g>
</g>
</svg>
