<?xml version="1.0" encoding="UTF-8" standalone="no"?>
<!DOCTYPE svg PUBLIC "-//W3C//DTD SVG 1.1//EN"
 "http://www.w3.org/Graphics/SVG/1.1/DTD/svg11.dtd">
<!-- Generated by graphviz version 12.2.1 (20241206.2353)
 -->
<!-- Pages: 1 -->
<svg width="848pt" height="325pt"
 viewBox="0.00 0.00 847.75 325.25" xmlns="http://www.w3.org/2000/svg" xmlns:xlink="http://www.w3.org/1999/xlink">
<g id="graph0" class="graph" transform="scale(1 1) rotate(0) translate(4 321.25)">
<polygon fill="#ffffff" stroke="none" points="-4,4 -4,-321.25 843.75,-321.25 843.75,4 -4,4"/>
<!-- OBC &#45; J11 -->
<g id="node1" class="node">
<title>OBC &#45; J11</title>
<polygon fill="#ffffff" stroke="black" points="105.25,-283.5 0,-283.5 0,-93.5 105.25,-93.5 105.25,-283.5"/>
<polygon fill="none" stroke="black" points="0,-259.75 0,-283.5 105.25,-283.5 105.25,-259.75 0,-259.75"/>
<text text-anchor="start" x="21.12" y="-266.2" font-family="arial" font-size="14.00">OBC &#45; J11</text>
<polygon fill="none" stroke="black" points="0,-236 0,-259.75 67.25,-259.75 67.25,-236 0,-236"/>
<text text-anchor="start" x="4" y="-242.45" font-family="arial" font-size="14.00">Picoblade</text>
<polygon fill="none" stroke="black" points="67.25,-236 67.25,-259.75 105.25,-259.75 105.25,-236 67.25,-236"/>
<text text-anchor="start" x="71.25" y="-242.45" font-family="arial" font-size="14.00">6&#45;pin</text>
<polygon fill="none" stroke="black" points="0,-212.25 0,-236 73.25,-236 73.25,-212.25 0,-212.25"/>
<text text-anchor="start" x="28.38" y="-218.7" font-family="arial" font-size="14.00">3V</text>
<polygon fill="none" stroke="black" points="73.25,-212.25 73.25,-236 105.25,-236 105.25,-212.25 73.25,-212.25"/>
<text text-anchor="start" x="85.5" y="-218.7" font-family="arial" font-size="14.00">1</text>
<polygon fill="none" stroke="black" points="0,-188.5 0,-212.25 73.25,-212.25 73.25,-188.5 0,-188.5"/>
<text text-anchor="start" x="12.25" y="-194.95" font-family="arial" font-size="14.00">SWCLK</text>
<polygon fill="none" stroke="black" points="73.25,-188.5 73.25,-212.25 105.25,-212.25 105.25,-188.5 73.25,-188.5"/>
<text text-anchor="start" x="85.5" y="-194.95" font-family="arial" font-size="14.00">2</text>
<polygon fill="none" stroke="black" points="0,-164.75 0,-188.5 73.25,-188.5 73.25,-164.75 0,-164.75"/>
<text text-anchor="start" x="21.25" y="-171.2" font-family="arial" font-size="14.00">GND</text>
<polygon fill="none" stroke="black" points="73.25,-164.75 73.25,-188.5 105.25,-188.5 105.25,-164.75 73.25,-164.75"/>
<text text-anchor="start" x="85.5" y="-171.2" font-family="arial" font-size="14.00">3</text>
<polygon fill="none" stroke="black" points="0,-141 0,-164.75 73.25,-164.75 73.25,-141 0,-141"/>
<text text-anchor="start" x="13" y="-147.45" font-family="arial" font-size="14.00">SWDIO</text>
<polygon fill="none" stroke="black" points="73.25,-141 73.25,-164.75 105.25,-164.75 105.25,-141 73.25,-141"/>
<text text-anchor="start" x="85.5" y="-147.45" font-family="arial" font-size="14.00">4</text>
<polygon fill="none" stroke="black" points="0,-117.25 0,-141 73.25,-141 73.25,-117.25 0,-117.25"/>
<text text-anchor="start" x="18.25" y="-123.7" font-family="arial" font-size="14.00">NRST</text>
<polygon fill="none" stroke="black" points="73.25,-117.25 73.25,-141 105.25,-141 105.25,-117.25 73.25,-117.25"/>
<text text-anchor="start" x="85.5" y="-123.7" font-family="arial" font-size="14.00">5</text>
<polygon fill="none" stroke="black" points="0,-93.5 0,-117.25 73.25,-117.25 73.25,-93.5 0,-93.5"/>
<text text-anchor="start" x="19.75" y="-99.95" font-family="arial" font-size="14.00">SWO</text>
<polygon fill="none" stroke="black" points="73.25,-93.5 73.25,-117.25 105.25,-117.25 105.25,-93.5 73.25,-93.5"/>
<text text-anchor="start" x="85.5" y="-99.95" font-family="arial" font-size="14.00">6</text>
</g>
<!-- Harness 52 &#45; Programmer Connector -->
<g id="node3" class="node">
<title>Harness 52 &#45; Programmer Connector</title>
<polygon fill="#ffffff" stroke="black" points="544,-317.25 249.25,-317.25 249.25,-75.75 544,-75.75 544,-317.25"/>
<polygon fill="none" stroke="black" points="249.25,-293.5 249.25,-317.25 544,-317.25 544,-293.5 249.25,-293.5"/>
<text text-anchor="start" x="284.88" y="-299.95" font-family="arial" font-size="14.00">Harness 52 &#45; Programmer Connector</text>
<polygon fill="none" stroke="black" points="249.25,-269.75 249.25,-293.5 544,-293.5 544,-269.75 249.25,-269.75"/>
<text text-anchor="start" x="389.5" y="-276.2" font-family="arial" font-size="14.00">6x</text>
<text text-anchor="start" x="312.75" y="-254.45" font-family="arial" font-size="14.00"> </text>
<text text-anchor="start" x="267.38" y="-234.7" font-family="arial" font-size="14.00">OBC &#45; J11:1:3V</text>
<text text-anchor="start" x="382" y="-234.7" font-family="arial" font-size="14.00"> &#160;&#160;&#160;&#160;1 &#160;&#160;&#160;</text>
<text text-anchor="start" x="439.62" y="-234.7" font-family="arial" font-size="14.00">ST&#45;LINK:7:3V3</text>
<polygon fill="#000000" stroke="none" points="249.25,-228.25 249.25,-230.25 544,-230.25 544,-228.25 249.25,-228.25"/>
<polygon fill="#ffffff" stroke="none" points="249.25,-226.25 249.25,-228.25 544,-228.25 544,-226.25 249.25,-226.25"/>
<polygon fill="#000000" stroke="none" points="249.25,-224.25 249.25,-226.25 544,-226.25 544,-224.25 249.25,-224.25"/>
<text text-anchor="start" x="251.25" y="-208.95" font-family="arial" font-size="14.00">OBC &#45; J11:2:SWCLK</text>
<text text-anchor="start" x="382" y="-208.95" font-family="arial" font-size="14.00"> &#160;&#160;&#160;&#160;2 &#160;&#160;&#160;</text>
<text text-anchor="start" x="427.25" y="-208.95" font-family="arial" font-size="14.00">ST&#45;LINK:2:SWCLK</text>
<polygon fill="#000000" stroke="none" points="249.25,-202.5 249.25,-204.5 544,-204.5 544,-202.5 249.25,-202.5"/>
<polygon fill="#ffffff" stroke="none" points="249.25,-200.5 249.25,-202.5 544,-202.5 544,-200.5 249.25,-200.5"/>
<polygon fill="#000000" stroke="none" points="249.25,-198.5 249.25,-200.5 544,-200.5 544,-198.5 249.25,-198.5"/>
<text text-anchor="start" x="260.25" y="-183.2" font-family="arial" font-size="14.00">OBC &#45; J11:3:GND</text>
<text text-anchor="start" x="382" y="-183.2" font-family="arial" font-size="14.00"> &#160;&#160;&#160;&#160;3 &#160;&#160;&#160;</text>
<text text-anchor="start" x="436.25" y="-183.2" font-family="arial" font-size="14.00">ST&#45;LINK:5:GND</text>
<polygon fill="#000000" stroke="none" points="249.25,-176.75 249.25,-178.75 544,-178.75 544,-176.75 249.25,-176.75"/>
<polygon fill="#ffffff" stroke="none" points="249.25,-174.75 249.25,-176.75 544,-176.75 544,-174.75 249.25,-174.75"/>
<polygon fill="#000000" stroke="none" points="249.25,-172.75 249.25,-174.75 544,-174.75 544,-172.75 249.25,-172.75"/>
<text text-anchor="start" x="252" y="-157.45" font-family="arial" font-size="14.00">OBC &#45; J11:4:SWDIO</text>
<text text-anchor="start" x="382" y="-157.45" font-family="arial" font-size="14.00"> &#160;&#160;&#160;&#160;4 &#160;&#160;&#160;</text>
<text text-anchor="start" x="428" y="-157.45" font-family="arial" font-size="14.00">ST&#45;LINK:4:SWDIO</text>
<polygon fill="#000000" stroke="none" points="249.25,-151 249.25,-153 544,-153 544,-151 249.25,-151"/>
<polygon fill="#ffffff" stroke="none" points="249.25,-149 249.25,-151 544,-151 544,-149 249.25,-149"/>
<polygon fill="#000000" stroke="none" points="249.25,-147 249.25,-149 544,-149 544,-147 249.25,-147"/>
<text text-anchor="start" x="257.25" y="-131.7" font-family="arial" font-size="14.00">OBC &#45; J11:5:NRST</text>
<text text-anchor="start" x="382" y="-131.7" font-family="arial" font-size="14.00"> &#160;&#160;&#160;&#160;5 &#160;&#160;&#160;</text>
<text text-anchor="start" x="438.12" y="-131.7" font-family="arial" font-size="14.00">ST&#45;LINK:1:RST</text>
<polygon fill="#000000" stroke="none" points="249.25,-125.25 249.25,-127.25 544,-127.25 544,-125.25 249.25,-125.25"/>
<polygon fill="#ffffff" stroke="none" points="249.25,-123.25 249.25,-125.25 544,-125.25 544,-123.25 249.25,-123.25"/>
<polygon fill="#000000" stroke="none" points="249.25,-121.25 249.25,-123.25 544,-123.25 544,-121.25 249.25,-121.25"/>
<text text-anchor="start" x="382" y="-105.95" font-family="arial" font-size="14.00"> &#160;&#160;&#160;&#160;6 &#160;&#160;&#160;</text>
<polygon fill="#000000" stroke="none" points="249.25,-99.5 249.25,-101.5 544,-101.5 544,-99.5 249.25,-99.5"/>
<polygon fill="#ffffff" stroke="none" points="249.25,-97.5 249.25,-99.5 544,-99.5 544,-97.5 249.25,-97.5"/>
<polygon fill="#000000" stroke="none" points="249.25,-95.5 249.25,-97.5 544,-97.5 544,-95.5 249.25,-95.5"/>
<text text-anchor="start" x="312.75" y="-80.2" font-family="arial" font-size="14.00"> </text>
</g>
<!-- OBC &#45; J11&#45;&#45;Harness 52 &#45; Programmer Connector -->
<g id="edge1" class="edge">
<title>OBC &#45; J11:e&#45;&#45;Harness 52 &#45; Programmer Connector:w</title>
<path fill="none" stroke="#000000" stroke-width="2" d="M105.25,-222.13C169.65,-222.16 185.62,-225.29 249.25,-225.25"/>
<path fill="none" stroke="#ffffff" stroke-width="2" d="M105.25,-224.12C169.27,-224.13 185.23,-227.25 249.25,-227.25"/>
<path fill="none" stroke="#000000" stroke-width="2" d="M105.25,-226.12C168.88,-226.09 184.85,-229.21 249.25,-229.25"/>
</g>
<!-- OBC &#45; J11&#45;&#45;Harness 52 &#45; Programmer Connector -->
<g id="edge3" class="edge">
<title>OBC &#45; J11:e&#45;&#45;Harness 52 &#45; Programmer Connector:w</title>
<path fill="none" stroke="#000000" stroke-width="2" d="M105.25,-198.38C169.39,-198.38 185.39,-199.5 249.25,-199.5"/>
<path fill="none" stroke="#ffffff" stroke-width="2" d="M105.25,-200.38C169.25,-200.37 185.25,-201.5 249.25,-201.5"/>
<path fill="none" stroke="#000000" stroke-width="2" d="M105.25,-202.37C169.11,-202.37 185.11,-203.5 249.25,-203.5"/>
</g>
<!-- OBC &#45; J11&#45;&#45;Harness 52 &#45; Programmer Connector -->
<g id="edge5" class="edge">
<title>OBC &#45; J11:e&#45;&#45;Harness 52 &#45; Programmer Connector:w</title>
<path fill="none" stroke="#000000" stroke-width="2" d="M105.25,-174.63C169.14,-174.63 185.14,-173.75 249.25,-173.75"/>
<path fill="none" stroke="#ffffff" stroke-width="2" d="M105.25,-176.62C169.25,-176.63 185.25,-175.75 249.25,-175.75"/>
<path fill="none" stroke="#000000" stroke-width="2" d="M105.25,-178.62C169.36,-178.62 185.36,-177.75 249.25,-177.75"/>
</g>
<!-- OBC &#45; J11&#45;&#45;Harness 52 &#45; Programmer Connector -->
<g id="edge7" class="edge">
<title>OBC &#45; J11:e&#45;&#45;Harness 52 &#45; Programmer Connector:w</title>
<path fill="none" stroke="#000000" stroke-width="2" d="M105.25,-150.88C168.91,-150.91 184.88,-148.03 249.25,-148"/>
<path fill="none" stroke="#ffffff" stroke-width="2" d="M105.25,-152.88C169.26,-152.88 185.24,-150 249.25,-150"/>
<path fill="none" stroke="#000000" stroke-width="2" d="M105.25,-154.87C169.62,-154.84 185.59,-151.97 249.25,-152"/>
</g>
<!-- OBC &#45; J11&#45;&#45;Harness 52 &#45; Programmer Connector -->
<g id="edge9" class="edge">
<title>OBC &#45; J11:e&#45;&#45;Harness 52 &#45; Programmer Connector:w</title>
<path fill="none" stroke="#000000" stroke-width="2" d="M105.25,-127.13C168.7,-127.21 184.63,-122.34 249.25,-122.25"/>
<path fill="none" stroke="#ffffff" stroke-width="2" d="M105.25,-129.12C169.29,-129.12 185.21,-124.25 249.25,-124.25"/>
<path fill="none" stroke="#000000" stroke-width="2" d="M105.25,-131.12C169.87,-131.04 185.8,-126.16 249.25,-126.25"/>
</g>
<!-- ST&#45;LINK -->
<g id="node2" class="node">
<title>ST&#45;LINK</title>
<polygon fill="#ffffff" stroke="black" points="839.75,-285 688,-285 688,0 839.75,0 839.75,-285"/>
<polygon fill="none" stroke="black" points="688,-261.25 688,-285 839.75,-285 839.75,-261.25 688,-261.25"/>
<text text-anchor="start" x="738.38" y="-267.7" font-family="arial" font-size="14.00">ST&#45;LINK</text>
<polygon fill="none" stroke="black" points="688,-237.5 688,-261.25 794.25,-261.25 794.25,-237.5 688,-237.5"/>
<text text-anchor="start" x="692" y="-243.95" font-family="arial" font-size="14.00">2.54mm Header</text>
<polygon fill="none" stroke="black" points="794.25,-237.5 794.25,-261.25 839.75,-261.25 839.75,-237.5 794.25,-237.5"/>
<text text-anchor="start" x="798.25" y="-243.95" font-family="arial" font-size="14.00">10&#45;pin</text>
<polygon fill="none" stroke="black" points="688,-213.75 688,-237.5 747,-237.5 747,-213.75 688,-213.75"/>
<text text-anchor="start" x="713.75" y="-220.2" font-family="arial" font-size="14.00">1</text>
<polygon fill="none" stroke="black" points="747,-213.75 747,-237.5 839.75,-237.5 839.75,-213.75 747,-213.75"/>
<text text-anchor="start" x="779.88" y="-220.2" font-family="arial" font-size="14.00">RST</text>
<polygon fill="none" stroke="black" points="688,-190 688,-213.75 747,-213.75 747,-190 688,-190"/>
<text text-anchor="start" x="713.75" y="-196.45" font-family="arial" font-size="14.00">2</text>
<polygon fill="none" stroke="black" points="747,-190 747,-213.75 839.75,-213.75 839.75,-190 747,-190"/>
<text text-anchor="start" x="769" y="-196.45" font-family="arial" font-size="14.00">SWCLK</text>
<polygon fill="none" stroke="black" points="688,-166.25 688,-190 747,-190 747,-166.25 688,-166.25"/>
<text text-anchor="start" x="713.75" y="-172.7" font-family="arial" font-size="14.00">3</text>
<polygon fill="none" stroke="black" points="747,-166.25 747,-190 839.75,-190 839.75,-166.25 747,-166.25"/>
<text text-anchor="start" x="774.25" y="-172.7" font-family="arial" font-size="14.00">SWIM</text>
<polygon fill="none" stroke="black" points="688,-142.5 688,-166.25 747,-166.25 747,-142.5 688,-142.5"/>
<text text-anchor="start" x="713.75" y="-148.95" font-family="arial" font-size="14.00">4</text>
<polygon fill="none" stroke="black" points="747,-142.5 747,-166.25 839.75,-166.25 839.75,-142.5 747,-142.5"/>
<text text-anchor="start" x="769.75" y="-148.95" font-family="arial" font-size="14.00">SWDIO</text>
<polygon fill="none" stroke="black" points="688,-118.75 688,-142.5 747,-142.5 747,-118.75 688,-118.75"/>
<text text-anchor="start" x="713.75" y="-125.2" font-family="arial" font-size="14.00">5</text>
<polygon fill="none" stroke="black" points="747,-118.75 747,-142.5 839.75,-142.5 839.75,-118.75 747,-118.75"/>
<text text-anchor="start" x="778" y="-125.2" font-family="arial" font-size="14.00">GND</text>
<polygon fill="none" stroke="black" points="688,-95 688,-118.75 747,-118.75 747,-95 688,-95"/>
<text text-anchor="start" x="713.75" y="-101.45" font-family="arial" font-size="14.00">6</text>
<polygon fill="none" stroke="black" points="747,-95 747,-118.75 839.75,-118.75 839.75,-95 747,-95"/>
<text text-anchor="start" x="778" y="-101.45" font-family="arial" font-size="14.00">GND</text>
<polygon fill="none" stroke="black" points="688,-71.25 688,-95 747,-95 747,-71.25 688,-71.25"/>
<text text-anchor="start" x="713.75" y="-77.7" font-family="arial" font-size="14.00">7</text>
<polygon fill="none" stroke="black" points="747,-71.25 747,-95 839.75,-95 839.75,-71.25 747,-71.25"/>
<text text-anchor="start" x="781.38" y="-77.7" font-family="arial" font-size="14.00">3V3</text>
<polygon fill="none" stroke="black" points="688,-47.5 688,-71.25 747,-71.25 747,-47.5 688,-47.5"/>
<text text-anchor="start" x="713.75" y="-53.95" font-family="arial" font-size="14.00">8</text>
<polygon fill="none" stroke="black" points="747,-47.5 747,-71.25 839.75,-71.25 839.75,-47.5 747,-47.5"/>
<text text-anchor="start" x="785.12" y="-53.95" font-family="arial" font-size="14.00">5V</text>
<polygon fill="none" stroke="black" points="688,-23.75 688,-47.5 747,-47.5 747,-23.75 688,-23.75"/>
<text text-anchor="start" x="713.75" y="-30.2" font-family="arial" font-size="14.00">9</text>
<polygon fill="none" stroke="black" points="747,-23.75 747,-47.5 839.75,-47.5 839.75,-23.75 747,-23.75"/>
<text text-anchor="start" x="785.12" y="-30.2" font-family="arial" font-size="14.00">5V</text>
<polygon fill="none" stroke="black" points="688,0 688,-23.75 747,-23.75 747,0 688,0"/>
<text text-anchor="start" x="710" y="-6.45" font-family="arial" font-size="14.00">10</text>
</g>
<!-- Harness 52 &#45; Programmer Connector&#45;&#45;ST&#45;LINK -->
<g id="edge2" class="edge">
<title>Harness 52 &#45; Programmer Connector:e&#45;&#45;ST&#45;LINK:w</title>
<path fill="none" stroke="#000000" stroke-width="2" d="M544,-225.25C632.61,-227.75 595.51,-83.62 688,-81.13"/>
<path fill="none" stroke="#ffffff" stroke-width="2" d="M544,-227.25C634.55,-227.25 597.45,-83.13 688,-83.12"/>
<path fill="none" stroke="#000000" stroke-width="2" d="M544,-229.25C636.49,-226.75 599.39,-82.63 688,-85.12"/>
</g>
<!-- Harness 52 &#45; Programmer Connector&#45;&#45;ST&#45;LINK -->
<g id="edge4" class="edge">
<title>Harness 52 &#45; Programmer Connector:e&#45;&#45;ST&#45;LINK:w</title>
<path fill="none" stroke="#000000" stroke-width="2" d="M544,-199.5C608.05,-199.5 624.05,-199.88 688,-199.88"/>
<path fill="none" stroke="#ffffff" stroke-width="2" d="M544,-201.5C608,-201.5 624,-201.87 688,-201.87"/>
<path fill="none" stroke="#000000" stroke-width="2" d="M544,-203.5C607.95,-203.5 623.95,-203.87 688,-203.87"/>
</g>
<!-- Harness 52 &#45; Programmer Connector&#45;&#45;ST&#45;LINK -->
<g id="edge6" class="edge">
<title>Harness 52 &#45; Programmer Connector:e&#45;&#45;ST&#45;LINK:w</title>
<path fill="none" stroke="#000000" stroke-width="2" d="M544,-173.75C609.11,-175.32 618.98,-130.2 688,-128.63"/>
<path fill="none" stroke="#ffffff" stroke-width="2" d="M544,-175.75C611.07,-175.75 620.93,-130.62 688,-130.63"/>
<path fill="none" stroke="#000000" stroke-width="2" d="M544,-177.75C613.02,-176.18 622.89,-131.05 688,-132.62"/>
</g>
<!-- Harness 52 &#45; Programmer Connector&#45;&#45;ST&#45;LINK -->
<g id="edge8" class="edge">
<title>Harness 52 &#45; Programmer Connector:e&#45;&#45;ST&#45;LINK:w</title>
<path fill="none" stroke="#000000" stroke-width="2" d="M544,-148C608.56,-148.07 624.5,-152.45 688,-152.38"/>
<path fill="none" stroke="#ffffff" stroke-width="2" d="M544,-150C608.03,-150 623.97,-154.38 688,-154.38"/>
<path fill="none" stroke="#000000" stroke-width="2" d="M544,-152C607.5,-151.93 623.44,-156.3 688,-156.37"/>
</g>
<!-- Harness 52 &#45; Programmer Connector&#45;&#45;ST&#45;LINK -->
<g id="edge10" class="edge">
<title>Harness 52 &#45; Programmer Connector:e&#45;&#45;ST&#45;LINK:w</title>
<path fill="none" stroke="#000000" stroke-width="2" d="M544,-122.25C624.25,-124.5 611.72,-225.87 688,-223.63"/>
<path fill="none" stroke="#ffffff" stroke-width="2" d="M544,-124.25C622.27,-124.25 609.73,-225.62 688,-225.62"/>
<path fill="none" stroke="#000000" stroke-width="2" d="M544,-126.25C620.28,-124 607.75,-225.38 688,-227.62"/>
</g>
</g>
</svg>
