<?xml version="1.0" encoding="UTF-8" standalone="no"?>
<!DOCTYPE svg PUBLIC "-//W3C//DTD SVG 1.1//EN"
 "http://www.w3.org/Graphics/SVG/1.1/DTD/svg11.dtd">
<!-- Generated by graphviz version 12.2.1 (20241206.2353)
 -->
<!-- Pages: 1 -->
<svg width="981pt" height="301pt"
 viewBox="0.00 0.00 980.75 301.00" xmlns="http://www.w3.org/2000/svg" xmlns:xlink="http://www.w3.org/1999/xlink">
<g id="graph0" class="graph" transform="scale(1 1) rotate(0) translate(4 297)">
<polygon fill="#ffffff" stroke="none" points="-4,4 -4,-297 976.75,-297 976.75,4 -4,4"/>
<!-- OBC &#45; J3 -->
<g id="node1" class="node">
<title>OBC &#45; J3</title>
<polygon fill="#ffffff" stroke="black" points="146.5,-256.25 0,-256.25 0,-18.75 146.5,-18.75 146.5,-256.25"/>
<polygon fill="none" stroke="black" points="0,-232.5 0,-256.25 146.5,-256.25 146.5,-232.5 0,-232.5"/>
<text text-anchor="start" x="45.12" y="-238.95" font-family="arial" font-size="14.00">OBC &#45; J3</text>
<polygon fill="none" stroke="black" points="0,-208.75 0,-232.5 87.88,-232.5 87.88,-208.75 0,-208.75"/>
<text text-anchor="start" x="14.31" y="-215.2" font-family="arial" font-size="14.00">Picoblade</text>
<polygon fill="none" stroke="black" points="87.88,-208.75 87.88,-232.5 146.5,-232.5 146.5,-208.75 87.88,-208.75"/>
<text text-anchor="start" x="102.19" y="-215.2" font-family="arial" font-size="14.00">8&#45;pin</text>
<polygon fill="none" stroke="black" points="0,-185 0,-208.75 131,-208.75 131,-185 0,-185"/>
<text text-anchor="start" x="50.12" y="-191.45" font-family="arial" font-size="14.00">GND</text>
<polygon fill="none" stroke="black" points="131,-185 131,-208.75 146.5,-208.75 146.5,-185 131,-185"/>
<text text-anchor="start" x="135" y="-191.45" font-family="arial" font-size="14.00">1</text>
<polygon fill="none" stroke="black" points="0,-161.25 0,-185 131,-185 131,-161.25 0,-161.25"/>
<text text-anchor="start" x="50.12" y="-167.7" font-family="arial" font-size="14.00">GND</text>
<polygon fill="none" stroke="black" points="131,-161.25 131,-185 146.5,-185 146.5,-161.25 131,-161.25"/>
<text text-anchor="start" x="135" y="-167.7" font-family="arial" font-size="14.00">2</text>
<polygon fill="none" stroke="black" points="0,-137.5 0,-161.25 131,-161.25 131,-137.5 0,-137.5"/>
<text text-anchor="start" x="4.75" y="-143.95" font-family="arial" font-size="14.00">MOSI_USART3_TX</text>
<polygon fill="none" stroke="black" points="131,-137.5 131,-161.25 146.5,-161.25 146.5,-137.5 131,-137.5"/>
<text text-anchor="start" x="135" y="-143.95" font-family="arial" font-size="14.00">3</text>
<polygon fill="none" stroke="black" points="0,-113.75 0,-137.5 131,-137.5 131,-113.75 0,-113.75"/>
<text text-anchor="start" x="4" y="-120.2" font-family="arial" font-size="14.00">MISO_USART3_RX</text>
<polygon fill="none" stroke="black" points="131,-113.75 131,-137.5 146.5,-137.5 146.5,-113.75 131,-113.75"/>
<text text-anchor="start" x="135" y="-120.2" font-family="arial" font-size="14.00">4</text>
<polygon fill="none" stroke="black" points="0,-90 0,-113.75 131,-113.75 131,-90 0,-90"/>
<text text-anchor="start" x="50.12" y="-96.45" font-family="arial" font-size="14.00">GND</text>
<polygon fill="none" stroke="black" points="131,-90 131,-113.75 146.5,-113.75 146.5,-90 131,-90"/>
<text text-anchor="start" x="135" y="-96.45" font-family="arial" font-size="14.00">5</text>
<polygon fill="none" stroke="black" points="0,-66.25 0,-90 131,-90 131,-66.25 0,-66.25"/>
<text text-anchor="start" x="50.12" y="-72.7" font-family="arial" font-size="14.00">GND</text>
<polygon fill="none" stroke="black" points="131,-66.25 131,-90 146.5,-90 146.5,-66.25 131,-66.25"/>
<text text-anchor="start" x="135" y="-72.7" font-family="arial" font-size="14.00">6</text>
<polygon fill="none" stroke="black" points="0,-42.5 0,-66.25 131,-66.25 131,-42.5 0,-42.5"/>
<text text-anchor="start" x="33.62" y="-48.95" font-family="arial" font-size="14.00">GPS_PPS</text>
<polygon fill="none" stroke="black" points="131,-42.5 131,-66.25 146.5,-66.25 146.5,-42.5 131,-42.5"/>
<text text-anchor="start" x="135" y="-48.95" font-family="arial" font-size="14.00">7</text>
<polygon fill="none" stroke="black" points="0,-18.75 0,-42.5 131,-42.5 131,-18.75 0,-18.75"/>
<text text-anchor="start" x="50.12" y="-25.2" font-family="arial" font-size="14.00">GND</text>
<polygon fill="none" stroke="black" points="131,-18.75 131,-42.5 146.5,-42.5 146.5,-18.75 131,-18.75"/>
<text text-anchor="start" x="135" y="-25.2" font-family="arial" font-size="14.00">8</text>
</g>
<!-- Harness 7 &#45; GPS Connector -->
<g id="node3" class="node">
<title>Harness 7 &#45; GPS Connector</title>
<polygon fill="#ffffff" stroke="black" points="720.25,-293 290.5,-293 290.5,0 720.25,0 720.25,-293"/>
<polygon fill="none" stroke="black" points="290.5,-269.25 290.5,-293 720.25,-293 720.25,-269.25 290.5,-269.25"/>
<text text-anchor="start" x="421" y="-275.7" font-family="arial" font-size="14.00">Harness 7 &#45; GPS Connector</text>
<polygon fill="none" stroke="black" points="290.5,-245.5 290.5,-269.25 720.25,-269.25 720.25,-245.5 290.5,-245.5"/>
<text text-anchor="start" x="498.25" y="-251.95" font-family="arial" font-size="14.00">8x</text>
<text text-anchor="start" x="387.75" y="-230.2" font-family="arial" font-size="14.00"> </text>
<text text-anchor="start" x="338.62" y="-210.45" font-family="arial" font-size="14.00">OBC &#45; J3:1:GND</text>
<text text-anchor="start" x="490.75" y="-210.45" font-family="arial" font-size="14.00"> &#160;&#160;&#160;&#160;1 &#160;&#160;&#160;</text>
<text text-anchor="start" x="536" y="-210.45" font-family="arial" font-size="14.00">GPS &#45; DMC3 P1:1:UART0 RX</text>
<polygon fill="#000000" stroke="none" points="290.5,-204 290.5,-206 720.25,-206 720.25,-204 290.5,-204"/>
<polygon fill="#ffffff" stroke="none" points="290.5,-202 290.5,-204 720.25,-204 720.25,-202 290.5,-202"/>
<polygon fill="#000000" stroke="none" points="290.5,-200 290.5,-202 720.25,-202 720.25,-200 290.5,-200"/>
<text text-anchor="start" x="338.62" y="-184.7" font-family="arial" font-size="14.00">OBC &#45; J3:2:GND</text>
<text text-anchor="start" x="490.75" y="-184.7" font-family="arial" font-size="14.00"> &#160;&#160;&#160;&#160;2 &#160;&#160;&#160;</text>
<text text-anchor="start" x="536.75" y="-184.7" font-family="arial" font-size="14.00">GPS &#45; DMC3 P1:2:UART0 TX</text>
<polygon fill="#000000" stroke="none" points="290.5,-178.25 290.5,-180.25 720.25,-180.25 720.25,-178.25 290.5,-178.25"/>
<polygon fill="#ffffff" stroke="none" points="290.5,-176.25 290.5,-178.25 720.25,-178.25 720.25,-176.25 290.5,-176.25"/>
<polygon fill="#000000" stroke="none" points="290.5,-174.25 290.5,-176.25 720.25,-176.25 720.25,-174.25 290.5,-174.25"/>
<text text-anchor="start" x="293.25" y="-158.95" font-family="arial" font-size="14.00">OBC &#45; J3:3:MOSI_USART3_TX</text>
<text text-anchor="start" x="490.75" y="-158.95" font-family="arial" font-size="14.00"> &#160;&#160;&#160;&#160;3 &#160;&#160;&#160;</text>
<text text-anchor="start" x="536" y="-158.95" font-family="arial" font-size="14.00">GPS &#45; DMC3 P1:3:UART1 RX</text>
<polygon fill="#000000" stroke="none" points="290.5,-152.5 290.5,-154.5 720.25,-154.5 720.25,-152.5 290.5,-152.5"/>
<polygon fill="#ffffff" stroke="none" points="290.5,-150.5 290.5,-152.5 720.25,-152.5 720.25,-150.5 290.5,-150.5"/>
<polygon fill="#000000" stroke="none" points="290.5,-148.5 290.5,-150.5 720.25,-150.5 720.25,-148.5 290.5,-148.5"/>
<text text-anchor="start" x="292.5" y="-133.2" font-family="arial" font-size="14.00">OBC &#45; J3:4:MISO_USART3_RX</text>
<text text-anchor="start" x="490.75" y="-133.2" font-family="arial" font-size="14.00"> &#160;&#160;&#160;&#160;4 &#160;&#160;&#160;</text>
<text text-anchor="start" x="536.75" y="-133.2" font-family="arial" font-size="14.00">GPS &#45; DMC3 P1:4:UART1 TX</text>
<polygon fill="#000000" stroke="none" points="290.5,-126.75 290.5,-128.75 720.25,-128.75 720.25,-126.75 290.5,-126.75"/>
<polygon fill="#ffffff" stroke="none" points="290.5,-124.75 290.5,-126.75 720.25,-126.75 720.25,-124.75 290.5,-124.75"/>
<polygon fill="#000000" stroke="none" points="290.5,-122.75 290.5,-124.75 720.25,-124.75 720.25,-122.75 290.5,-122.75"/>
<text text-anchor="start" x="338.62" y="-107.45" font-family="arial" font-size="14.00">OBC &#45; J3:5:GND</text>
<text text-anchor="start" x="490.75" y="-107.45" font-family="arial" font-size="14.00"> &#160;&#160;&#160;&#160;5 &#160;&#160;&#160;</text>
<text text-anchor="start" x="549.88" y="-107.45" font-family="arial" font-size="14.00">GPS &#45; DMC3 P1:5:AUX 1</text>
<polygon fill="#000000" stroke="none" points="290.5,-101 290.5,-103 720.25,-103 720.25,-101 290.5,-101"/>
<polygon fill="#ffffff" stroke="none" points="290.5,-99 290.5,-101 720.25,-101 720.25,-99 290.5,-99"/>
<polygon fill="#000000" stroke="none" points="290.5,-97 290.5,-99 720.25,-99 720.25,-97 290.5,-97"/>
<text text-anchor="start" x="338.62" y="-81.7" font-family="arial" font-size="14.00">OBC &#45; J3:6:GND</text>
<text text-anchor="start" x="490.75" y="-81.7" font-family="arial" font-size="14.00"> &#160;&#160;&#160;&#160;6 &#160;&#160;&#160;</text>
<text text-anchor="start" x="549.88" y="-81.7" font-family="arial" font-size="14.00">GPS &#45; DMC3 P1:6:AUX 2</text>
<polygon fill="#000000" stroke="none" points="290.5,-75.25 290.5,-77.25 720.25,-77.25 720.25,-75.25 290.5,-75.25"/>
<polygon fill="#ffffff" stroke="none" points="290.5,-73.25 290.5,-75.25 720.25,-75.25 720.25,-73.25 290.5,-73.25"/>
<polygon fill="#000000" stroke="none" points="290.5,-71.25 290.5,-73.25 720.25,-73.25 720.25,-71.25 290.5,-71.25"/>
<text text-anchor="start" x="322.12" y="-55.95" font-family="arial" font-size="14.00">OBC &#45; J3:7:GPS_PPS</text>
<text text-anchor="start" x="490.75" y="-55.95" font-family="arial" font-size="14.00"> &#160;&#160;&#160;&#160;7 &#160;&#160;&#160;</text>
<text text-anchor="start" x="549.88" y="-55.95" font-family="arial" font-size="14.00">GPS &#45; DMC3 P1:7:AUX 3</text>
<polygon fill="#000000" stroke="none" points="290.5,-49.5 290.5,-51.5 720.25,-51.5 720.25,-49.5 290.5,-49.5"/>
<polygon fill="#ffffff" stroke="none" points="290.5,-47.5 290.5,-49.5 720.25,-49.5 720.25,-47.5 290.5,-47.5"/>
<polygon fill="#000000" stroke="none" points="290.5,-45.5 290.5,-47.5 720.25,-47.5 720.25,-45.5 290.5,-45.5"/>
<text text-anchor="start" x="338.62" y="-30.2" font-family="arial" font-size="14.00">OBC &#45; J3:8:GND</text>
<text text-anchor="start" x="490.75" y="-30.2" font-family="arial" font-size="14.00"> &#160;&#160;&#160;&#160;8 &#160;&#160;&#160;</text>
<text text-anchor="start" x="549.88" y="-30.2" font-family="arial" font-size="14.00">GPS &#45; DMC3 P1:8:AUX 4</text>
<polygon fill="#000000" stroke="none" points="290.5,-23.75 290.5,-25.75 720.25,-25.75 720.25,-23.75 290.5,-23.75"/>
<polygon fill="#ffffff" stroke="none" points="290.5,-21.75 290.5,-23.75 720.25,-23.75 720.25,-21.75 290.5,-21.75"/>
<polygon fill="#000000" stroke="none" points="290.5,-19.75 290.5,-21.75 720.25,-21.75 720.25,-19.75 290.5,-19.75"/>
<text text-anchor="start" x="387.75" y="-4.45" font-family="arial" font-size="14.00"> </text>
</g>
<!-- OBC &#45; J3&#45;&#45;Harness 7 &#45; GPS Connector -->
<g id="edge1" class="edge">
<title>OBC &#45; J3:e&#45;&#45;Harness 7 &#45; GPS Connector:w</title>
<path fill="none" stroke="#000000" stroke-width="2" d="M146.5,-194.88C211.28,-195.01 227.16,-201.13 290.5,-201"/>
<path fill="none" stroke="#ffffff" stroke-width="2" d="M146.5,-196.88C210.56,-196.87 226.44,-203 290.5,-203"/>
<path fill="none" stroke="#000000" stroke-width="2" d="M146.5,-198.87C209.84,-198.74 225.72,-204.87 290.5,-205"/>
</g>
<!-- OBC &#45; J3&#45;&#45;Harness 7 &#45; GPS Connector -->
<g id="edge3" class="edge">
<title>OBC &#45; J3:e&#45;&#45;Harness 7 &#45; GPS Connector:w</title>
<path fill="none" stroke="#000000" stroke-width="2" d="M146.5,-171.13C211.03,-171.19 226.97,-175.31 290.5,-175.25"/>
<path fill="none" stroke="#ffffff" stroke-width="2" d="M146.5,-173.12C210.53,-173.12 226.47,-177.25 290.5,-177.25"/>
<path fill="none" stroke="#000000" stroke-width="2" d="M146.5,-175.12C210.03,-175.06 225.97,-179.19 290.5,-179.25"/>
</g>
<!-- OBC &#45; J3&#45;&#45;Harness 7 &#45; GPS Connector -->
<g id="edge5" class="edge">
<title>OBC &#45; J3:e&#45;&#45;Harness 7 &#45; GPS Connector:w</title>
<path fill="none" stroke="#000000" stroke-width="2" d="M146.5,-147.38C210.77,-147.39 226.76,-149.52 290.5,-149.5"/>
<path fill="none" stroke="#ffffff" stroke-width="2" d="M146.5,-149.38C210.51,-149.38 226.49,-151.5 290.5,-151.5"/>
<path fill="none" stroke="#000000" stroke-width="2" d="M146.5,-151.37C210.24,-151.36 226.23,-153.48 290.5,-153.5"/>
</g>
<!-- OBC &#45; J3&#45;&#45;Harness 7 &#45; GPS Connector -->
<g id="edge7" class="edge">
<title>OBC &#45; J3:e&#45;&#45;Harness 7 &#45; GPS Connector:w</title>
<path fill="none" stroke="#000000" stroke-width="2" d="M146.5,-123.63C210.52,-123.63 226.52,-123.75 290.5,-123.75"/>
<path fill="none" stroke="#ffffff" stroke-width="2" d="M146.5,-125.62C210.5,-125.62 226.5,-125.75 290.5,-125.75"/>
<path fill="none" stroke="#000000" stroke-width="2" d="M146.5,-127.62C210.48,-127.62 226.48,-127.75 290.5,-127.75"/>
</g>
<!-- OBC &#45; J3&#45;&#45;Harness 7 &#45; GPS Connector -->
<g id="edge9" class="edge">
<title>OBC &#45; J3:e&#45;&#45;Harness 7 &#45; GPS Connector:w</title>
<path fill="none" stroke="#000000" stroke-width="2" d="M146.5,-99.88C210.27,-99.89 226.26,-98.01 290.5,-98"/>
<path fill="none" stroke="#ffffff" stroke-width="2" d="M146.5,-101.87C210.51,-101.88 226.49,-100 290.5,-100"/>
<path fill="none" stroke="#000000" stroke-width="2" d="M146.5,-103.87C210.74,-103.86 226.73,-101.99 290.5,-102"/>
</g>
<!-- OBC &#45; J3&#45;&#45;Harness 7 &#45; GPS Connector -->
<g id="edge11" class="edge">
<title>OBC &#45; J3:e&#45;&#45;Harness 7 &#45; GPS Connector:w</title>
<path fill="none" stroke="#000000" stroke-width="2" d="M146.5,-76.13C210.05,-76.18 226,-72.31 290.5,-72.25"/>
<path fill="none" stroke="#ffffff" stroke-width="2" d="M146.5,-78.12C210.52,-78.13 226.48,-74.25 290.5,-74.25"/>
<path fill="none" stroke="#000000" stroke-width="2" d="M146.5,-80.12C211,-80.07 226.95,-76.19 290.5,-76.25"/>
</g>
<!-- OBC &#45; J3&#45;&#45;Harness 7 &#45; GPS Connector -->
<g id="edge13" class="edge">
<title>OBC &#45; J3:e&#45;&#45;Harness 7 &#45; GPS Connector:w</title>
<path fill="none" stroke="#000000" stroke-width="2" d="M146.5,-52.38C209.86,-52.5 225.75,-46.62 290.5,-46.5"/>
<path fill="none" stroke="#ffffff" stroke-width="2" d="M146.5,-54.38C210.55,-54.38 226.45,-48.5 290.5,-48.5"/>
<path fill="none" stroke="#000000" stroke-width="2" d="M146.5,-56.37C211.25,-56.25 227.14,-50.38 290.5,-50.5"/>
</g>
<!-- OBC &#45; J3&#45;&#45;Harness 7 &#45; GPS Connector -->
<g id="edge15" class="edge">
<title>OBC &#45; J3:e&#45;&#45;Harness 7 &#45; GPS Connector:w</title>
<path fill="none" stroke="#000000" stroke-width="2" d="M146.5,-28.63C209.7,-28.83 225.51,-20.96 290.5,-20.75"/>
<path fill="none" stroke="#ffffff" stroke-width="2" d="M146.5,-30.62C210.6,-30.63 226.4,-22.75 290.5,-22.75"/>
<path fill="none" stroke="#000000" stroke-width="2" d="M146.5,-32.62C211.49,-32.42 227.3,-24.54 290.5,-24.75"/>
</g>
<!-- GPS &#45; DMC3 P1 -->
<g id="node2" class="node">
<title>GPS &#45; DMC3 P1</title>
<polygon fill="#ffffff" stroke="black" points="972.75,-256.25 864.25,-256.25 864.25,-18.75 972.75,-18.75 972.75,-256.25"/>
<polygon fill="none" stroke="black" points="864.25,-232.5 864.25,-256.25 972.75,-256.25 972.75,-232.5 864.25,-232.5"/>
<text text-anchor="start" x="868.25" y="-238.95" font-family="arial" font-size="14.00">GPS &#45; DMC3 P1</text>
<polygon fill="none" stroke="black" points="864.25,-208.75 864.25,-232.5 933.12,-232.5 933.12,-208.75 864.25,-208.75"/>
<text text-anchor="start" x="869.06" y="-215.2" font-family="arial" font-size="14.00">Picoblade</text>
<polygon fill="none" stroke="black" points="933.12,-208.75 933.12,-232.5 972.75,-232.5 972.75,-208.75 933.12,-208.75"/>
<text text-anchor="start" x="937.94" y="-215.2" font-family="arial" font-size="14.00">8&#45;pin</text>
<polygon fill="none" stroke="black" points="864.25,-185 864.25,-208.75 888.88,-208.75 888.88,-185 864.25,-185"/>
<text text-anchor="start" x="872.81" y="-191.45" font-family="arial" font-size="14.00">1</text>
<polygon fill="none" stroke="black" points="888.88,-185 888.88,-208.75 972.75,-208.75 972.75,-185 888.88,-185"/>
<text text-anchor="start" x="897.44" y="-191.45" font-family="arial" font-size="14.00">UART0 RX</text>
<polygon fill="none" stroke="black" points="864.25,-161.25 864.25,-185 888.88,-185 888.88,-161.25 864.25,-161.25"/>
<text text-anchor="start" x="872.81" y="-167.7" font-family="arial" font-size="14.00">2</text>
<polygon fill="none" stroke="black" points="888.88,-161.25 888.88,-185 972.75,-185 972.75,-161.25 888.88,-161.25"/>
<text text-anchor="start" x="898.19" y="-167.7" font-family="arial" font-size="14.00">UART0 TX</text>
<polygon fill="none" stroke="black" points="864.25,-137.5 864.25,-161.25 888.88,-161.25 888.88,-137.5 864.25,-137.5"/>
<text text-anchor="start" x="872.81" y="-143.95" font-family="arial" font-size="14.00">3</text>
<polygon fill="none" stroke="black" points="888.88,-137.5 888.88,-161.25 972.75,-161.25 972.75,-137.5 888.88,-137.5"/>
<text text-anchor="start" x="897.44" y="-143.95" font-family="arial" font-size="14.00">UART1 RX</text>
<polygon fill="none" stroke="black" points="864.25,-113.75 864.25,-137.5 888.88,-137.5 888.88,-113.75 864.25,-113.75"/>
<text text-anchor="start" x="872.81" y="-120.2" font-family="arial" font-size="14.00">4</text>
<polygon fill="none" stroke="black" points="888.88,-113.75 888.88,-137.5 972.75,-137.5 972.75,-113.75 888.88,-113.75"/>
<text text-anchor="start" x="898.19" y="-120.2" font-family="arial" font-size="14.00">UART1 TX</text>
<polygon fill="none" stroke="black" points="864.25,-90 864.25,-113.75 888.88,-113.75 888.88,-90 864.25,-90"/>
<text text-anchor="start" x="872.81" y="-96.45" font-family="arial" font-size="14.00">5</text>
<polygon fill="none" stroke="black" points="888.88,-90 888.88,-113.75 972.75,-113.75 972.75,-90 888.88,-90"/>
<text text-anchor="start" x="911.31" y="-96.45" font-family="arial" font-size="14.00">AUX 1</text>
<polygon fill="none" stroke="black" points="864.25,-66.25 864.25,-90 888.88,-90 888.88,-66.25 864.25,-66.25"/>
<text text-anchor="start" x="872.81" y="-72.7" font-family="arial" font-size="14.00">6</text>
<polygon fill="none" stroke="black" points="888.88,-66.25 888.88,-90 972.75,-90 972.75,-66.25 888.88,-66.25"/>
<text text-anchor="start" x="911.31" y="-72.7" font-family="arial" font-size="14.00">AUX 2</text>
<polygon fill="none" stroke="black" points="864.25,-42.5 864.25,-66.25 888.88,-66.25 888.88,-42.5 864.25,-42.5"/>
<text text-anchor="start" x="872.81" y="-48.95" font-family="arial" font-size="14.00">7</text>
<polygon fill="none" stroke="black" points="888.88,-42.5 888.88,-66.25 972.75,-66.25 972.75,-42.5 888.88,-42.5"/>
<text text-anchor="start" x="911.31" y="-48.95" font-family="arial" font-size="14.00">AUX 3</text>
<polygon fill="none" stroke="black" points="864.25,-18.75 864.25,-42.5 888.88,-42.5 888.88,-18.75 864.25,-18.75"/>
<text text-anchor="start" x="872.81" y="-25.2" font-family="arial" font-size="14.00">8</text>
<polygon fill="none" stroke="black" points="888.88,-18.75 888.88,-42.5 972.75,-42.5 972.75,-18.75 888.88,-18.75"/>
<text text-anchor="start" x="911.31" y="-25.2" font-family="arial" font-size="14.00">AUX 4</text>
</g>
<!-- Harness 7 &#45; GPS Connector&#45;&#45;GPS &#45; DMC3 P1 -->
<g id="edge2" class="edge">
<title>Harness 7 &#45; GPS Connector:e&#45;&#45;GPS &#45; DMC3 P1:w</title>
<path fill="none" stroke="#000000" stroke-width="2" d="M720.25,-201C783.59,-201.13 799.47,-195.01 864.25,-194.88"/>
<path fill="none" stroke="#ffffff" stroke-width="2" d="M720.25,-203C784.31,-203 800.19,-196.88 864.25,-196.88"/>
<path fill="none" stroke="#000000" stroke-width="2" d="M720.25,-205C785.03,-204.87 800.91,-198.74 864.25,-198.87"/>
</g>
<!-- Harness 7 &#45; GPS Connector&#45;&#45;GPS &#45; DMC3 P1 -->
<g id="edge4" class="edge">
<title>Harness 7 &#45; GPS Connector:e&#45;&#45;GPS &#45; DMC3 P1:w</title>
<path fill="none" stroke="#000000" stroke-width="2" d="M720.25,-175.25C783.78,-175.31 799.72,-171.19 864.25,-171.13"/>
<path fill="none" stroke="#ffffff" stroke-width="2" d="M720.25,-177.25C784.28,-177.25 800.22,-173.12 864.25,-173.12"/>
<path fill="none" stroke="#000000" stroke-width="2" d="M720.25,-179.25C784.78,-179.19 800.72,-175.06 864.25,-175.12"/>
</g>
<!-- Harness 7 &#45; GPS Connector&#45;&#45;GPS &#45; DMC3 P1 -->
<g id="edge6" class="edge">
<title>Harness 7 &#45; GPS Connector:e&#45;&#45;GPS &#45; DMC3 P1:w</title>
<path fill="none" stroke="#000000" stroke-width="2" d="M720.25,-149.5C783.99,-149.52 799.98,-147.39 864.25,-147.38"/>
<path fill="none" stroke="#ffffff" stroke-width="2" d="M720.25,-151.5C784.26,-151.5 800.24,-149.38 864.25,-149.38"/>
<path fill="none" stroke="#000000" stroke-width="2" d="M720.25,-153.5C784.52,-153.48 800.51,-151.36 864.25,-151.37"/>
</g>
<!-- Harness 7 &#45; GPS Connector&#45;&#45;GPS &#45; DMC3 P1 -->
<g id="edge8" class="edge">
<title>Harness 7 &#45; GPS Connector:e&#45;&#45;GPS &#45; DMC3 P1:w</title>
<path fill="none" stroke="#000000" stroke-width="2" d="M720.25,-123.75C784.23,-123.75 800.23,-123.63 864.25,-123.63"/>
<path fill="none" stroke="#ffffff" stroke-width="2" d="M720.25,-125.75C784.25,-125.75 800.25,-125.62 864.25,-125.62"/>
<path fill="none" stroke="#000000" stroke-width="2" d="M720.25,-127.75C784.27,-127.75 800.27,-127.62 864.25,-127.62"/>
</g>
<!-- Harness 7 &#45; GPS Connector&#45;&#45;GPS &#45; DMC3 P1 -->
<g id="edge10" class="edge">
<title>Harness 7 &#45; GPS Connector:e&#45;&#45;GPS &#45; DMC3 P1:w</title>
<path fill="none" stroke="#000000" stroke-width="2" d="M720.25,-98C784.49,-98.01 800.48,-99.89 864.25,-99.88"/>
<path fill="none" stroke="#ffffff" stroke-width="2" d="M720.25,-100C784.26,-100 800.24,-101.88 864.25,-101.87"/>
<path fill="none" stroke="#000000" stroke-width="2" d="M720.25,-102C784.02,-101.99 800.01,-103.86 864.25,-103.87"/>
</g>
<!-- Harness 7 &#45; GPS Connector&#45;&#45;GPS &#45; DMC3 P1 -->
<g id="edge12" class="edge">
<title>Harness 7 &#45; GPS Connector:e&#45;&#45;GPS &#45; DMC3 P1:w</title>
<path fill="none" stroke="#000000" stroke-width="2" d="M720.25,-72.25C784.75,-72.31 800.7,-76.18 864.25,-76.13"/>
<path fill="none" stroke="#ffffff" stroke-width="2" d="M720.25,-74.25C784.27,-74.25 800.23,-78.13 864.25,-78.12"/>
<path fill="none" stroke="#000000" stroke-width="2" d="M720.25,-76.25C783.8,-76.19 799.75,-80.07 864.25,-80.12"/>
</g>
<!-- Harness 7 &#45; GPS Connector&#45;&#45;GPS &#45; DMC3 P1 -->
<g id="edge14" class="edge">
<title>Harness 7 &#45; GPS Connector:e&#45;&#45;GPS &#45; DMC3 P1:w</title>
<path fill="none" stroke="#000000" stroke-width="2" d="M720.25,-46.5C785,-46.62 800.89,-52.5 864.25,-52.38"/>
<path fill="none" stroke="#ffffff" stroke-width="2" d="M720.25,-48.5C784.3,-48.5 800.2,-54.38 864.25,-54.38"/>
<path fill="none" stroke="#000000" stroke-width="2" d="M720.25,-50.5C783.61,-50.38 799.5,-56.25 864.25,-56.37"/>
</g>
<!-- Harness 7 &#45; GPS Connector&#45;&#45;GPS &#45; DMC3 P1 -->
<g id="edge16" class="edge">
<title>Harness 7 &#45; GPS Connector:e&#45;&#45;GPS &#45; DMC3 P1:w</title>
<path fill="none" stroke="#000000" stroke-width="2" d="M720.25,-20.75C785.24,-20.96 801.05,-28.83 864.25,-28.63"/>
<path fill="none" stroke="#ffffff" stroke-width="2" d="M720.25,-22.75C784.35,-22.75 800.15,-30.63 864.25,-30.62"/>
<path fill="none" stroke="#000000" stroke-width="2" d="M720.25,-24.75C783.45,-24.54 799.26,-32.42 864.25,-32.62"/>
</g>
</g>
</svg>
