<?xml version="1.0" encoding="UTF-8" standalone="no"?>
<!DOCTYPE svg PUBLIC "-//W3C//DTD SVG 1.1//EN"
 "http://www.w3.org/Graphics/SVG/1.1/DTD/svg11.dtd">
<!-- Generated by graphviz version 12.2.1 (20241206.2353)
 -->
<!-- Pages: 1 -->
<svg width="998pt" height="198pt"
 viewBox="0.00 0.00 998.00 198.00" xmlns="http://www.w3.org/2000/svg" xmlns:xlink="http://www.w3.org/1999/xlink">
<g id="graph0" class="graph" transform="scale(1 1) rotate(0) translate(4 194)">
<polygon fill="#ffffff" stroke="none" points="-4,4 -4,-194 994,-194 994,4 -4,4"/>
<!-- OBC &#45; J4 -->
<g id="node1" class="node">
<title>OBC &#45; J4</title>
<polygon fill="#ffffff" stroke="black" points="105.25,-157.25 0,-157.25 0,-14.75 105.25,-14.75 105.25,-157.25"/>
<polygon fill="none" stroke="black" points="0,-133.5 0,-157.25 105.25,-157.25 105.25,-133.5 0,-133.5"/>
<text text-anchor="start" x="24.5" y="-139.95" font-family="arial" font-size="14.00">OBC &#45; J4</text>
<polygon fill="none" stroke="black" points="0,-109.75 0,-133.5 67.25,-133.5 67.25,-109.75 0,-109.75"/>
<text text-anchor="start" x="4" y="-116.2" font-family="arial" font-size="14.00">Picoblade</text>
<polygon fill="none" stroke="black" points="67.25,-109.75 67.25,-133.5 105.25,-133.5 105.25,-109.75 67.25,-109.75"/>
<text text-anchor="start" x="71.25" y="-116.2" font-family="arial" font-size="14.00">4&#45;pin</text>
<polygon fill="none" stroke="black" points="0,-86 0,-109.75 77,-109.75 77,-86 0,-86"/>
<text text-anchor="start" x="10.38" y="-92.45" font-family="arial" font-size="14.00">12V_MPI</text>
<polygon fill="none" stroke="black" points="77,-86 77,-109.75 105.25,-109.75 105.25,-86 77,-86"/>
<text text-anchor="start" x="87.38" y="-92.45" font-family="arial" font-size="14.00">1</text>
<polygon fill="none" stroke="black" points="0,-62.25 0,-86 77,-86 77,-62.25 0,-62.25"/>
<text text-anchor="start" x="10.38" y="-68.7" font-family="arial" font-size="14.00">12V_MPI</text>
<polygon fill="none" stroke="black" points="77,-62.25 77,-86 105.25,-86 105.25,-62.25 77,-62.25"/>
<text text-anchor="start" x="87.38" y="-68.7" font-family="arial" font-size="14.00">2</text>
<polygon fill="none" stroke="black" points="0,-38.5 0,-62.25 77,-62.25 77,-38.5 0,-38.5"/>
<text text-anchor="start" x="23.12" y="-44.95" font-family="arial" font-size="14.00">GND</text>
<polygon fill="none" stroke="black" points="77,-38.5 77,-62.25 105.25,-62.25 105.25,-38.5 77,-38.5"/>
<text text-anchor="start" x="87.38" y="-44.95" font-family="arial" font-size="14.00">3</text>
<polygon fill="none" stroke="black" points="0,-14.75 0,-38.5 77,-38.5 77,-14.75 0,-14.75"/>
<text text-anchor="start" x="23.12" y="-21.2" font-family="arial" font-size="14.00">GND</text>
<polygon fill="none" stroke="black" points="77,-14.75 77,-38.5 105.25,-38.5 105.25,-14.75 77,-14.75"/>
<text text-anchor="start" x="87.38" y="-21.2" font-family="arial" font-size="14.00">4</text>
</g>
<!-- Harness 1 &#45; MPI 12V Power -->
<g id="node3" class="node">
<title>Harness 1 &#45; MPI 12V Power</title>
<polygon fill="#ffffff" stroke="black" points="694.75,-190 249.25,-190 249.25,0 694.75,0 694.75,-190"/>
<polygon fill="none" stroke="black" points="249.25,-166.25 249.25,-190 694.75,-190 694.75,-166.25 249.25,-166.25"/>
<text text-anchor="start" x="388" y="-172.7" font-family="arial" font-size="14.00">Harness 1 &#45; MPI 12V Power</text>
<polygon fill="none" stroke="black" points="249.25,-142.5 249.25,-166.25 448.38,-166.25 448.38,-142.5 249.25,-142.5"/>
<text text-anchor="start" x="341.69" y="-148.95" font-family="arial" font-size="14.00">4x</text>
<polygon fill="none" stroke="black" points="448.38,-142.5 448.38,-166.25 694.75,-166.25 694.75,-142.5 448.38,-142.5"/>
<text text-anchor="start" x="540.81" y="-148.95" font-family="arial" font-size="14.00">200.0 mm</text>
<text text-anchor="start" x="313.12" y="-127.2" font-family="arial" font-size="14.00"> </text>
<text text-anchor="start" x="251.25" y="-107.45" font-family="arial" font-size="14.00">OBC &#45; J4:1:12V_MPI</text>
<text text-anchor="start" x="385.38" y="-107.45" font-family="arial" font-size="14.00"> &#160;&#160;&#160;&#160;1:VT &#160;&#160;&#160;</text>
<text text-anchor="start" x="454.25" y="-107.45" font-family="arial" font-size="14.00">EPS &#45; J10 VD3_OBC[0]:1:VD3_OBC(0)</text>
<polygon fill="#000000" stroke="none" points="249.25,-101 249.25,-103 694.75,-103 694.75,-101 249.25,-101"/>
<polygon fill="#8000ff" stroke="none" points="249.25,-99 249.25,-101 694.75,-101 694.75,-99 249.25,-99"/>
<polygon fill="#000000" stroke="none" points="249.25,-97 249.25,-99 694.75,-99 694.75,-97 249.25,-97"/>
<text text-anchor="start" x="251.25" y="-81.7" font-family="arial" font-size="14.00">OBC &#45; J4:2:12V_MPI</text>
<text text-anchor="start" x="385" y="-81.7" font-family="arial" font-size="14.00"> &#160;&#160;&#160;&#160;2:BK &#160;&#160;&#160;</text>
<text text-anchor="start" x="454.25" y="-81.7" font-family="arial" font-size="14.00">EPS &#45; J10 VD3_OBC[0]:2:VD3_OBC(0)</text>
<polygon fill="#000000" stroke="none" points="249.25,-75.25 249.25,-77.25 694.75,-77.25 694.75,-75.25 249.25,-75.25"/>
<polygon fill="#000000" stroke="none" points="249.25,-73.25 249.25,-75.25 694.75,-75.25 694.75,-73.25 249.25,-73.25"/>
<polygon fill="#000000" stroke="none" points="249.25,-71.25 249.25,-73.25 694.75,-73.25 694.75,-71.25 249.25,-71.25"/>
<text text-anchor="start" x="264" y="-55.95" font-family="arial" font-size="14.00">OBC &#45; J4:3:GND</text>
<text text-anchor="start" x="382.75" y="-55.95" font-family="arial" font-size="14.00"> &#160;&#160;&#160;&#160;3:OG &#160;&#160;&#160;</text>
<text text-anchor="start" x="479" y="-55.95" font-family="arial" font-size="14.00">EPS &#45; J10 VD3_OBC[0]:3:GND</text>
<polygon fill="#000000" stroke="none" points="249.25,-49.5 249.25,-51.5 694.75,-51.5 694.75,-49.5 249.25,-49.5"/>
<polygon fill="#ff8000" stroke="none" points="249.25,-47.5 249.25,-49.5 694.75,-49.5 694.75,-47.5 249.25,-47.5"/>
<polygon fill="#000000" stroke="none" points="249.25,-45.5 249.25,-47.5 694.75,-47.5 694.75,-45.5 249.25,-45.5"/>
<text text-anchor="start" x="264" y="-30.2" font-family="arial" font-size="14.00">OBC &#45; J4:4:GND</text>
<text text-anchor="start" x="385" y="-30.2" font-family="arial" font-size="14.00"> &#160;&#160;&#160;&#160;4:YE &#160;&#160;&#160;</text>
<text text-anchor="start" x="479" y="-30.2" font-family="arial" font-size="14.00">EPS &#45; J10 VD3_OBC[0]:4:GND</text>
<polygon fill="#000000" stroke="none" points="249.25,-23.75 249.25,-25.75 694.75,-25.75 694.75,-23.75 249.25,-23.75"/>
<polygon fill="#ffff00" stroke="none" points="249.25,-21.75 249.25,-23.75 694.75,-23.75 694.75,-21.75 249.25,-21.75"/>
<polygon fill="#000000" stroke="none" points="249.25,-19.75 249.25,-21.75 694.75,-21.75 694.75,-19.75 249.25,-19.75"/>
<text text-anchor="start" x="313.12" y="-4.45" font-family="arial" font-size="14.00"> </text>
</g>
<!-- OBC &#45; J4&#45;&#45;Harness 1 &#45; MPI 12V Power -->
<g id="edge1" class="edge">
<title>OBC &#45; J4:e&#45;&#45;Harness 1 &#45; MPI 12V Power:w</title>
<path fill="none" stroke="#000000" stroke-width="2" d="M105.25,-95.88C169.52,-95.89 185.51,-98.02 249.25,-98"/>
<path fill="none" stroke="#8000ff" stroke-width="2" d="M105.25,-97.88C169.26,-97.88 185.24,-100 249.25,-100"/>
<path fill="none" stroke="#000000" stroke-width="2" d="M105.25,-99.87C168.99,-99.86 184.98,-101.98 249.25,-102"/>
</g>
<!-- OBC &#45; J4&#45;&#45;Harness 1 &#45; MPI 12V Power -->
<g id="edge3" class="edge">
<title>OBC &#45; J4:e&#45;&#45;Harness 1 &#45; MPI 12V Power:w</title>
<path fill="none" stroke="#000000" stroke-width="2" d="M105.25,-72.13C169.27,-72.13 185.27,-72.25 249.25,-72.25"/>
<path fill="none" stroke="#000000" stroke-width="2" d="M105.25,-74.12C169.25,-74.12 185.25,-74.25 249.25,-74.25"/>
<path fill="none" stroke="#000000" stroke-width="2" d="M105.25,-76.12C169.23,-76.12 185.23,-76.25 249.25,-76.25"/>
</g>
<!-- OBC &#45; J4&#45;&#45;Harness 1 &#45; MPI 12V Power -->
<g id="edge5" class="edge">
<title>OBC &#45; J4:e&#45;&#45;Harness 1 &#45; MPI 12V Power:w</title>
<path fill="none" stroke="#000000" stroke-width="2" d="M105.25,-48.38C169.02,-48.39 185.01,-46.51 249.25,-46.5"/>
<path fill="none" stroke="#ff8000" stroke-width="2" d="M105.25,-50.38C169.26,-50.38 185.24,-48.5 249.25,-48.5"/>
<path fill="none" stroke="#000000" stroke-width="2" d="M105.25,-52.37C169.49,-52.36 185.48,-50.49 249.25,-50.5"/>
</g>
<!-- OBC &#45; J4&#45;&#45;Harness 1 &#45; MPI 12V Power -->
<g id="edge7" class="edge">
<title>OBC &#45; J4:e&#45;&#45;Harness 1 &#45; MPI 12V Power:w</title>
<path fill="none" stroke="#000000" stroke-width="2" d="M105.25,-24.63C168.8,-24.68 184.75,-20.81 249.25,-20.75"/>
<path fill="none" stroke="#ffff00" stroke-width="2" d="M105.25,-26.62C169.27,-26.62 185.23,-22.75 249.25,-22.75"/>
<path fill="none" stroke="#000000" stroke-width="2" d="M105.25,-28.62C169.75,-28.57 185.7,-24.69 249.25,-24.75"/>
</g>
<!-- EPS &#45; J10 VD3_OBC[0] -->
<g id="node2" class="node">
<title>EPS &#45; J10 VD3_OBC[0]</title>
<polygon fill="#ffffff" stroke="black" points="990,-157.25 838.75,-157.25 838.75,-14.75 990,-14.75 990,-157.25"/>
<polygon fill="none" stroke="black" points="838.75,-133.5 838.75,-157.25 990,-157.25 990,-133.5 838.75,-133.5"/>
<text text-anchor="start" x="842.75" y="-139.95" font-family="arial" font-size="14.00">EPS &#45; J10 VD3_OBC[0]</text>
<polygon fill="none" stroke="black" points="838.75,-109.75 838.75,-133.5 928.25,-133.5 928.25,-109.75 838.75,-109.75"/>
<text text-anchor="start" x="854.62" y="-116.2" font-family="arial" font-size="14.00">Microlock</text>
<polygon fill="none" stroke="black" points="928.25,-109.75 928.25,-133.5 990,-133.5 990,-109.75 928.25,-109.75"/>
<text text-anchor="start" x="944.12" y="-116.2" font-family="arial" font-size="14.00">4&#45;pin</text>
<polygon fill="none" stroke="black" points="838.75,-86 838.75,-109.75 878,-109.75 878,-86 838.75,-86"/>
<text text-anchor="start" x="854.62" y="-92.45" font-family="arial" font-size="14.00">1</text>
<polygon fill="none" stroke="black" points="878,-86 878,-109.75 990,-109.75 990,-86 878,-86"/>
<text text-anchor="start" x="893.88" y="-92.45" font-family="arial" font-size="14.00">VD3_OBC(0)</text>
<polygon fill="none" stroke="black" points="838.75,-62.25 838.75,-86 878,-86 878,-62.25 838.75,-62.25"/>
<text text-anchor="start" x="854.62" y="-68.7" font-family="arial" font-size="14.00">2</text>
<polygon fill="none" stroke="black" points="878,-62.25 878,-86 990,-86 990,-62.25 878,-62.25"/>
<text text-anchor="start" x="893.88" y="-68.7" font-family="arial" font-size="14.00">VD3_OBC(0)</text>
<polygon fill="none" stroke="black" points="838.75,-38.5 838.75,-62.25 878,-62.25 878,-38.5 838.75,-38.5"/>
<text text-anchor="start" x="854.62" y="-44.95" font-family="arial" font-size="14.00">3</text>
<polygon fill="none" stroke="black" points="878,-38.5 878,-62.25 990,-62.25 990,-38.5 878,-38.5"/>
<text text-anchor="start" x="918.62" y="-44.95" font-family="arial" font-size="14.00">GND</text>
<polygon fill="none" stroke="black" points="838.75,-14.75 838.75,-38.5 878,-38.5 878,-14.75 838.75,-14.75"/>
<text text-anchor="start" x="854.62" y="-21.2" font-family="arial" font-size="14.00">4</text>
<polygon fill="none" stroke="black" points="878,-14.75 878,-38.5 990,-38.5 990,-14.75 878,-14.75"/>
<text text-anchor="start" x="918.62" y="-21.2" font-family="arial" font-size="14.00">GND</text>
</g>
<!-- Harness 1 &#45; MPI 12V Power&#45;&#45;EPS &#45; J10 VD3_OBC[0] -->
<g id="edge2" class="edge">
<title>Harness 1 &#45; MPI 12V Power:e&#45;&#45;EPS &#45; J10 VD3_OBC[0]:w</title>
<path fill="none" stroke="#000000" stroke-width="2" d="M694.75,-98C758.49,-98.02 774.48,-95.89 838.75,-95.88"/>
<path fill="none" stroke="#8000ff" stroke-width="2" d="M694.75,-100C758.76,-100 774.74,-97.88 838.75,-97.88"/>
<path fill="none" stroke="#000000" stroke-width="2" d="M694.75,-102C759.02,-101.98 775.01,-99.86 838.75,-99.87"/>
</g>
<!-- Harness 1 &#45; MPI 12V Power&#45;&#45;EPS &#45; J10 VD3_OBC[0] -->
<g id="edge4" class="edge">
<title>Harness 1 &#45; MPI 12V Power:e&#45;&#45;EPS &#45; J10 VD3_OBC[0]:w</title>
<path fill="none" stroke="#000000" stroke-width="2" d="M694.75,-72.25C758.73,-72.25 774.73,-72.13 838.75,-72.13"/>
<path fill="none" stroke="#000000" stroke-width="2" d="M694.75,-74.25C758.75,-74.25 774.75,-74.12 838.75,-74.12"/>
<path fill="none" stroke="#000000" stroke-width="2" d="M694.75,-76.25C758.77,-76.25 774.77,-76.12 838.75,-76.12"/>
</g>
<!-- Harness 1 &#45; MPI 12V Power&#45;&#45;EPS &#45; J10 VD3_OBC[0] -->
<g id="edge6" class="edge">
<title>Harness 1 &#45; MPI 12V Power:e&#45;&#45;EPS &#45; J10 VD3_OBC[0]:w</title>
<path fill="none" stroke="#000000" stroke-width="2" d="M694.75,-46.5C758.99,-46.51 774.98,-48.39 838.75,-48.38"/>
<path fill="none" stroke="#ff8000" stroke-width="2" d="M694.75,-48.5C758.76,-48.5 774.74,-50.38 838.75,-50.38"/>
<path fill="none" stroke="#000000" stroke-width="2" d="M694.75,-50.5C758.52,-50.49 774.51,-52.36 838.75,-52.37"/>
</g>
<!-- Harness 1 &#45; MPI 12V Power&#45;&#45;EPS &#45; J10 VD3_OBC[0] -->
<g id="edge8" class="edge">
<title>Harness 1 &#45; MPI 12V Power:e&#45;&#45;EPS &#45; J10 VD3_OBC[0]:w</title>
<path fill="none" stroke="#000000" stroke-width="2" d="M694.75,-20.75C759.25,-20.81 775.2,-24.68 838.75,-24.63"/>
<path fill="none" stroke="#ffff00" stroke-width="2" d="M694.75,-22.75C758.77,-22.75 774.73,-26.62 838.75,-26.62"/>
<path fill="none" stroke="#000000" stroke-width="2" d="M694.75,-24.75C758.3,-24.69 774.25,-28.57 838.75,-28.62"/>
</g>
</g>
</svg>
