<?xml version="1.0" encoding="UTF-8" standalone="no"?>
<!DOCTYPE svg PUBLIC "-//W3C//DTD SVG 1.1//EN"
 "http://www.w3.org/Graphics/SVG/1.1/DTD/svg11.dtd">
<!-- Generated by graphviz version 12.2.1 (20241206.2353)
 -->
<!-- Pages: 1 -->
<svg width="1407pt" height="265pt"
 viewBox="0.00 0.00 1406.75 265.00" xmlns="http://www.w3.org/2000/svg" xmlns:xlink="http://www.w3.org/1999/xlink">
<g id="graph0" class="graph" transform="scale(1 1) rotate(0) translate(4 261)">
<polygon fill="#ffffff" stroke="none" points="-4,4 -4,-261 1402.75,-261 1402.75,4 -4,4"/>
<!-- COTS Solar Panel PWR -->
<g id="node1" class="node">
<title>COTS Solar Panel PWR</title>
<polygon fill="#ffffff" stroke="black" points="175,-226.25 0,-226.25 0,-131.25 175,-131.25 175,-226.25"/>
<polygon fill="none" stroke="black" points="0,-202.5 0,-226.25 175,-226.25 175,-202.5 0,-202.5"/>
<text text-anchor="start" x="13.62" y="-208.95" font-family="arial" font-size="14.00">COTS Solar Panel PWR</text>
<polygon fill="none" stroke="black" points="0,-178.75 0,-202.5 102.12,-202.5 102.12,-178.75 0,-178.75"/>
<text text-anchor="start" x="21.44" y="-185.2" font-family="arial" font-size="14.00">Picoblade</text>
<polygon fill="none" stroke="black" points="102.12,-178.75 102.12,-202.5 175,-202.5 175,-178.75 102.12,-178.75"/>
<text text-anchor="start" x="123.56" y="-185.2" font-family="arial" font-size="14.00">2&#45;pin</text>
<polygon fill="none" stroke="black" points="0,-155 0,-178.75 159.5,-178.75 159.5,-155 0,-155"/>
<text text-anchor="start" x="4" y="-161.45" font-family="arial" font-size="14.00">V+ (Solar Cell P junction)</text>
<polygon fill="none" stroke="black" points="159.5,-155 159.5,-178.75 175,-178.75 175,-155 159.5,-155"/>
<text text-anchor="start" x="163.5" y="-161.45" font-family="arial" font-size="14.00">1</text>
<polygon fill="none" stroke="black" points="0,-131.25 0,-155 159.5,-155 159.5,-131.25 0,-131.25"/>
<text text-anchor="start" x="51.62" y="-137.7" font-family="arial" font-size="14.00">V&#45; (GND)</text>
<polygon fill="none" stroke="black" points="159.5,-131.25 159.5,-155 175,-155 175,-131.25 159.5,-131.25"/>
<text text-anchor="start" x="163.5" y="-137.7" font-family="arial" font-size="14.00">2</text>
</g>
<!-- Harness 4 &#45; COTS Solar Panel PWR -->
<g id="node3" class="node">
<title>Harness 4 &#45; COTS Solar Panel PWR</title>
<polygon fill="#ffffff" stroke="black" points="989.5,-257 319,-257 319,-118.5 989.5,-118.5 989.5,-257"/>
<polygon fill="none" stroke="black" points="319,-233.25 319,-257 989.5,-257 989.5,-233.25 319,-233.25"/>
<text text-anchor="start" x="543.62" y="-239.7" font-family="arial" font-size="14.00">Harness 4 &#45; COTS Solar Panel PWR</text>
<polygon fill="none" stroke="black" points="319,-209.5 319,-233.25 989.5,-233.25 989.5,-209.5 319,-209.5"/>
<text text-anchor="start" x="647.12" y="-215.95" font-family="arial" font-size="14.00">2x</text>
<text text-anchor="start" x="476.25" y="-194.2" font-family="arial" font-size="14.00"> </text>
<text text-anchor="start" x="321" y="-174.45" font-family="arial" font-size="14.00">COTS Solar Panel PWR:1:V+ (Solar Cell P junction)</text>
<text text-anchor="start" x="639.25" y="-174.45" font-family="arial" font-size="14.00"> &#160;&#160;&#160;&#160;1 &#160;&#160;&#160;</text>
<text text-anchor="start" x="686.75" y="-174.45" font-family="arial" font-size="14.00">EPS &#45; J11_CH0, J11_CH1, J11_CH2, J303:1:SP+</text>
<polygon fill="#000000" stroke="none" points="319,-168 319,-170 989.5,-170 989.5,-168 319,-168"/>
<polygon fill="#ffffff" stroke="none" points="319,-166 319,-168 989.5,-168 989.5,-166 319,-166"/>
<polygon fill="#000000" stroke="none" points="319,-164 319,-166 989.5,-166 989.5,-164 319,-164"/>
<text text-anchor="start" x="368.62" y="-148.7" font-family="arial" font-size="14.00">COTS Solar Panel PWR:2:V&#45; (GND)</text>
<text text-anchor="start" x="639.25" y="-148.7" font-family="arial" font-size="14.00"> &#160;&#160;&#160;&#160;2 &#160;&#160;&#160;</text>
<text text-anchor="start" x="684.5" y="-148.7" font-family="arial" font-size="14.00">EPS &#45; J11_CH0, J11_CH1, J11_CH2, J303:3:GND</text>
<polygon fill="#000000" stroke="none" points="319,-142.25 319,-144.25 989.5,-144.25 989.5,-142.25 319,-142.25"/>
<polygon fill="#ffffff" stroke="none" points="319,-140.25 319,-142.25 989.5,-142.25 989.5,-140.25 319,-140.25"/>
<polygon fill="#000000" stroke="none" points="319,-138.25 319,-140.25 989.5,-140.25 989.5,-138.25 319,-138.25"/>
<text text-anchor="start" x="476.25" y="-122.95" font-family="arial" font-size="14.00"> </text>
</g>
<!-- COTS Solar Panel PWR&#45;&#45;Harness 4 &#45; COTS Solar Panel PWR -->
<g id="edge1" class="edge">
<title>COTS Solar Panel PWR:e&#45;&#45;Harness 4 &#45; COTS Solar Panel PWR:w</title>
<path fill="none" stroke="#000000" stroke-width="2" d="M175,-164.88C239.02,-164.88 255.02,-165 319,-165"/>
<path fill="none" stroke="#ffffff" stroke-width="2" d="M175,-166.88C239,-166.88 255,-167 319,-167"/>
<path fill="none" stroke="#000000" stroke-width="2" d="M175,-168.87C238.98,-168.87 254.98,-169 319,-169"/>
</g>
<!-- COTS Solar Panel PWR&#45;&#45;Harness 4 &#45; COTS Solar Panel PWR -->
<g id="edge3" class="edge">
<title>COTS Solar Panel PWR:e&#45;&#45;Harness 4 &#45; COTS Solar Panel PWR:w</title>
<path fill="none" stroke="#000000" stroke-width="2" d="M175,-141.13C238.77,-141.14 254.76,-139.26 319,-139.25"/>
<path fill="none" stroke="#ffffff" stroke-width="2" d="M175,-143.12C239.01,-143.12 254.99,-141.25 319,-141.25"/>
<path fill="none" stroke="#000000" stroke-width="2" d="M175,-145.12C239.24,-145.11 255.23,-143.24 319,-143.25"/>
</g>
<!-- EPS &#45; J11_CH0, J11_CH1, J11_CH2, J303 -->
<g id="node2" class="node">
<title>EPS &#45; J11_CH0, J11_CH1, J11_CH2, J303</title>
<polygon fill="#ffffff" stroke="black" points="1398.75,-237.5 1133.5,-237.5 1133.5,0 1398.75,0 1398.75,-237.5"/>
<polygon fill="none" stroke="black" points="1133.5,-213.75 1133.5,-237.5 1398.75,-237.5 1398.75,-213.75 1133.5,-213.75"/>
<text text-anchor="start" x="1137.5" y="-220.2" font-family="arial" font-size="14.00">EPS &#45; J11_CH0, J11_CH1, J11_CH2, J303</text>
<polygon fill="none" stroke="black" points="1133.5,-190 1133.5,-213.75 1276.25,-213.75 1276.25,-190 1133.5,-190"/>
<text text-anchor="start" x="1179.75" y="-196.45" font-family="arial" font-size="14.00">Picolock</text>
<polygon fill="none" stroke="black" points="1276.25,-190 1276.25,-213.75 1398.75,-213.75 1398.75,-190 1276.25,-190"/>
<text text-anchor="start" x="1322.5" y="-196.45" font-family="arial" font-size="14.00">8&#45;pin</text>
<polygon fill="none" stroke="black" points="1133.5,-166.25 1133.5,-190 1254.5,-190 1254.5,-166.25 1133.5,-166.25"/>
<text text-anchor="start" x="1190.25" y="-172.7" font-family="arial" font-size="14.00">1</text>
<polygon fill="none" stroke="black" points="1254.5,-166.25 1254.5,-190 1398.75,-190 1398.75,-166.25 1254.5,-166.25"/>
<text text-anchor="start" x="1313.5" y="-172.7" font-family="arial" font-size="14.00">SP+</text>
<polygon fill="none" stroke="black" points="1133.5,-142.5 1133.5,-166.25 1254.5,-166.25 1254.5,-142.5 1133.5,-142.5"/>
<text text-anchor="start" x="1190.25" y="-148.95" font-family="arial" font-size="14.00">2</text>
<polygon fill="none" stroke="black" points="1254.5,-142.5 1254.5,-166.25 1398.75,-166.25 1398.75,-142.5 1254.5,-142.5"/>
<text text-anchor="start" x="1313.5" y="-148.95" font-family="arial" font-size="14.00">SP+</text>
<polygon fill="none" stroke="black" points="1133.5,-118.75 1133.5,-142.5 1254.5,-142.5 1254.5,-118.75 1133.5,-118.75"/>
<text text-anchor="start" x="1190.25" y="-125.2" font-family="arial" font-size="14.00">3</text>
<polygon fill="none" stroke="black" points="1254.5,-118.75 1254.5,-142.5 1398.75,-142.5 1398.75,-118.75 1254.5,-118.75"/>
<text text-anchor="start" x="1311.25" y="-125.2" font-family="arial" font-size="14.00">GND</text>
<polygon fill="none" stroke="black" points="1133.5,-95 1133.5,-118.75 1254.5,-118.75 1254.5,-95 1133.5,-95"/>
<text text-anchor="start" x="1190.25" y="-101.45" font-family="arial" font-size="14.00">4</text>
<polygon fill="none" stroke="black" points="1254.5,-95 1254.5,-118.75 1398.75,-118.75 1398.75,-95 1254.5,-95"/>
<text text-anchor="start" x="1311.25" y="-101.45" font-family="arial" font-size="14.00">GND</text>
<polygon fill="none" stroke="black" points="1133.5,-71.25 1133.5,-95 1254.5,-95 1254.5,-71.25 1133.5,-71.25"/>
<text text-anchor="start" x="1190.25" y="-77.7" font-family="arial" font-size="14.00">5</text>
<polygon fill="none" stroke="black" points="1254.5,-71.25 1254.5,-95 1398.75,-95 1398.75,-71.25 1254.5,-71.25"/>
<text text-anchor="start" x="1313.5" y="-77.7" font-family="arial" font-size="14.00">SP+</text>
<polygon fill="none" stroke="black" points="1133.5,-47.5 1133.5,-71.25 1254.5,-71.25 1254.5,-47.5 1133.5,-47.5"/>
<text text-anchor="start" x="1190.25" y="-53.95" font-family="arial" font-size="14.00">6</text>
<polygon fill="none" stroke="black" points="1254.5,-47.5 1254.5,-71.25 1398.75,-71.25 1398.75,-47.5 1254.5,-47.5"/>
<text text-anchor="start" x="1313.5" y="-53.95" font-family="arial" font-size="14.00">SP+</text>
<polygon fill="none" stroke="black" points="1133.5,-23.75 1133.5,-47.5 1254.5,-47.5 1254.5,-23.75 1133.5,-23.75"/>
<text text-anchor="start" x="1190.25" y="-30.2" font-family="arial" font-size="14.00">7</text>
<polygon fill="none" stroke="black" points="1254.5,-23.75 1254.5,-47.5 1398.75,-47.5 1398.75,-23.75 1254.5,-23.75"/>
<text text-anchor="start" x="1311.25" y="-30.2" font-family="arial" font-size="14.00">GND</text>
<polygon fill="none" stroke="black" points="1133.5,0 1133.5,-23.75 1254.5,-23.75 1254.5,0 1133.5,0"/>
<text text-anchor="start" x="1190.25" y="-6.45" font-family="arial" font-size="14.00">8</text>
<polygon fill="none" stroke="black" points="1254.5,0 1254.5,-23.75 1398.75,-23.75 1398.75,0 1254.5,0"/>
<text text-anchor="start" x="1311.25" y="-6.45" font-family="arial" font-size="14.00">GND</text>
</g>
<!-- Harness 4 &#45; COTS Solar Panel PWR&#45;&#45;EPS &#45; J11_CH0, J11_CH1, J11_CH2, J303 -->
<g id="edge2" class="edge">
<title>Harness 4 &#45; COTS Solar Panel PWR:e&#45;&#45;EPS &#45; J11_CH0, J11_CH1, J11_CH2, J303:w</title>
<path fill="none" stroke="#000000" stroke-width="2" d="M989.5,-165C1054.85,-165.37 1070.47,-176.5 1133.5,-176.13"/>
<path fill="none" stroke="#ffffff" stroke-width="2" d="M989.5,-167C1053.69,-167 1069.31,-178.12 1133.5,-178.12"/>
<path fill="none" stroke="#000000" stroke-width="2" d="M989.5,-169C1052.53,-168.63 1068.15,-179.75 1133.5,-180.12"/>
</g>
<!-- Harness 4 &#45; COTS Solar Panel PWR&#45;&#45;EPS &#45; J11_CH0, J11_CH1, J11_CH2, J303 -->
<g id="edge4" class="edge">
<title>Harness 4 &#45; COTS Solar Panel PWR:e&#45;&#45;EPS &#45; J11_CH0, J11_CH1, J11_CH2, J303:w</title>
<path fill="none" stroke="#000000" stroke-width="2" d="M989.5,-139.25C1052.55,-139.6 1068.2,-128.97 1133.5,-128.63"/>
<path fill="none" stroke="#ffffff" stroke-width="2" d="M989.5,-141.25C1053.67,-141.25 1069.33,-130.62 1133.5,-130.62"/>
<path fill="none" stroke="#000000" stroke-width="2" d="M989.5,-143.25C1054.8,-142.9 1070.45,-132.28 1133.5,-132.62"/>
</g>
</g>
</svg>
