<?xml version="1.0" encoding="UTF-8" standalone="no"?>
<!DOCTYPE svg PUBLIC "-//W3C//DTD SVG 1.1//EN"
 "http://www.w3.org/Graphics/SVG/1.1/DTD/svg11.dtd">
<!-- Generated by graphviz version 12.2.1 (20241206.2353)
 -->
<!-- Pages: 1 -->
<svg width="1087pt" height="412pt"
 viewBox="0.00 0.00 1087.00 411.75" xmlns="http://www.w3.org/2000/svg" xmlns:xlink="http://www.w3.org/1999/xlink">
<g id="graph0" class="graph" transform="scale(1 1) rotate(0) translate(4 407.75)">
<polygon fill="#ffffff" stroke="none" points="-4,4 -4,-407.75 1083,-407.75 1083,4 -4,4"/>
<!-- OBC &#45; J14 -->
<g id="node1" class="node">
<title>OBC &#45; J14</title>
<polygon fill="#ffffff" stroke="black" points="137.5,-227.12 0,-227.12 0,-84.62 137.5,-84.62 137.5,-227.12"/>
<polygon fill="none" stroke="black" points="0,-203.38 0,-227.12 137.5,-227.12 137.5,-203.38 0,-203.38"/>
<text text-anchor="start" x="36.88" y="-209.82" font-family="arial" font-size="14.00">OBC &#45; J14</text>
<polygon fill="none" stroke="black" points="0,-179.62 0,-203.38 83.38,-203.38 83.38,-179.62 0,-179.62"/>
<text text-anchor="start" x="12.06" y="-186.07" font-family="arial" font-size="14.00">Picoblade</text>
<polygon fill="none" stroke="black" points="83.38,-179.62 83.38,-203.38 137.5,-203.38 137.5,-179.62 83.38,-179.62"/>
<text text-anchor="start" x="95.44" y="-186.07" font-family="arial" font-size="14.00">4&#45;pin</text>
<polygon fill="none" stroke="black" points="0,-155.88 0,-179.62 122,-179.62 122,-155.88 0,-155.88"/>
<text text-anchor="start" x="4" y="-162.32" font-family="arial" font-size="14.00">MISO_UART5_RX</text>
<polygon fill="none" stroke="black" points="122,-155.88 122,-179.62 137.5,-179.62 137.5,-155.88 122,-155.88"/>
<text text-anchor="start" x="126" y="-162.32" font-family="arial" font-size="14.00">1</text>
<polygon fill="none" stroke="black" points="0,-132.12 0,-155.88 122,-155.88 122,-132.12 0,-132.12"/>
<text text-anchor="start" x="4.75" y="-138.57" font-family="arial" font-size="14.00">MOSI_UART5_TX</text>
<polygon fill="none" stroke="black" points="122,-132.12 122,-155.88 137.5,-155.88 137.5,-132.12 122,-132.12"/>
<text text-anchor="start" x="126" y="-138.57" font-family="arial" font-size="14.00">2</text>
<polygon fill="none" stroke="black" points="0,-108.38 0,-132.12 122,-132.12 122,-108.38 0,-108.38"/>
<text text-anchor="start" x="45.62" y="-114.83" font-family="arial" font-size="14.00">GND</text>
<polygon fill="none" stroke="black" points="122,-108.38 122,-132.12 137.5,-132.12 137.5,-108.38 122,-108.38"/>
<text text-anchor="start" x="126" y="-114.83" font-family="arial" font-size="14.00">3</text>
<polygon fill="none" stroke="black" points="0,-84.62 0,-108.38 122,-108.38 122,-84.62 0,-84.62"/>
<text text-anchor="start" x="45.62" y="-91.08" font-family="arial" font-size="14.00">GND</text>
<polygon fill="none" stroke="black" points="122,-84.62 122,-108.38 137.5,-108.38 137.5,-84.62 122,-84.62"/>
<text text-anchor="start" x="126" y="-91.08" font-family="arial" font-size="14.00">4</text>
</g>
<!-- Harness 15 &#45; EPS UART to OBC -->
<g id="node3" class="node">
<title>Harness 15 &#45; EPS UART to OBC</title>
<polygon fill="#ffffff" stroke="black" points="766.75,-259.88 281.5,-259.88 281.5,-69.88 766.75,-69.88 766.75,-259.88"/>
<polygon fill="none" stroke="black" points="281.5,-236.12 281.5,-259.88 766.75,-259.88 766.75,-236.12 281.5,-236.12"/>
<text text-anchor="start" x="425.5" y="-242.57" font-family="arial" font-size="14.00">Harness 15 &#45; EPS UART to OBC</text>
<polygon fill="none" stroke="black" points="281.5,-212.38 281.5,-236.12 766.75,-236.12 766.75,-212.38 281.5,-212.38"/>
<text text-anchor="start" x="517" y="-218.82" font-family="arial" font-size="14.00">4x</text>
<text text-anchor="start" x="378" y="-197.07" font-family="arial" font-size="14.00"> </text>
<text text-anchor="start" x="283.5" y="-177.32" font-family="arial" font-size="14.00">OBC &#45; J14:1:MISO_UART5_RX</text>
<text text-anchor="start" x="482.88" y="-177.32" font-family="arial" font-size="14.00"> &#160;&#160;&#160;&#160;1:VT &#160;&#160;&#160;</text>
<text text-anchor="start" x="551.75" y="-177.32" font-family="arial" font-size="14.00">EPS &#45; J9:14:UART_TX_3V3_OUT1</text>
<polygon fill="#000000" stroke="none" points="281.5,-170.88 281.5,-172.88 766.75,-172.88 766.75,-170.88 281.5,-170.88"/>
<polygon fill="#8000ff" stroke="none" points="281.5,-168.88 281.5,-170.88 766.75,-170.88 766.75,-168.88 281.5,-168.88"/>
<polygon fill="#000000" stroke="none" points="281.5,-166.88 281.5,-168.88 766.75,-168.88 766.75,-166.88 281.5,-166.88"/>
<text text-anchor="start" x="284.25" y="-151.57" font-family="arial" font-size="14.00">OBC &#45; J14:2:MOSI_UART5_TX</text>
<text text-anchor="start" x="482.5" y="-151.57" font-family="arial" font-size="14.00"> &#160;&#160;&#160;&#160;2:BK &#160;&#160;&#160;</text>
<text text-anchor="start" x="558.88" y="-151.57" font-family="arial" font-size="14.00">EPS &#45; J9:15:UART_RX_3V3_IN1</text>
<polygon fill="#000000" stroke="none" points="281.5,-145.12 281.5,-147.12 766.75,-147.12 766.75,-145.12 281.5,-145.12"/>
<polygon fill="#000000" stroke="none" points="281.5,-143.12 281.5,-145.12 766.75,-145.12 766.75,-143.12 281.5,-143.12"/>
<polygon fill="#000000" stroke="none" points="281.5,-141.12 281.5,-143.12 766.75,-143.12 766.75,-141.12 281.5,-141.12"/>
<text text-anchor="start" x="325.12" y="-125.83" font-family="arial" font-size="14.00">OBC &#45; J14:3:GND</text>
<text text-anchor="start" x="480.25" y="-125.83" font-family="arial" font-size="14.00"> &#160;&#160;&#160;&#160;3:OG &#160;&#160;&#160;</text>
<text text-anchor="start" x="608.75" y="-125.83" font-family="arial" font-size="14.00">EPS &#45; J9:5:GND</text>
<polygon fill="#000000" stroke="none" points="281.5,-119.38 281.5,-121.38 766.75,-121.38 766.75,-119.38 281.5,-119.38"/>
<polygon fill="#ff8000" stroke="none" points="281.5,-117.38 281.5,-119.38 766.75,-119.38 766.75,-117.38 281.5,-117.38"/>
<polygon fill="#000000" stroke="none" points="281.5,-115.38 281.5,-117.38 766.75,-117.38 766.75,-115.38 281.5,-115.38"/>
<text text-anchor="start" x="325.12" y="-100.08" font-family="arial" font-size="14.00">OBC &#45; J14:4:GND</text>
<text text-anchor="start" x="482.5" y="-100.08" font-family="arial" font-size="14.00"> &#160;&#160;&#160;&#160;4:YE &#160;&#160;&#160;</text>
<text text-anchor="start" x="608.75" y="-100.08" font-family="arial" font-size="14.00">EPS &#45; J9:6:GND</text>
<polygon fill="#000000" stroke="none" points="281.5,-93.62 281.5,-95.62 766.75,-95.62 766.75,-93.62 281.5,-93.62"/>
<polygon fill="#ffff00" stroke="none" points="281.5,-91.62 281.5,-93.62 766.75,-93.62 766.75,-91.62 281.5,-91.62"/>
<polygon fill="#000000" stroke="none" points="281.5,-89.62 281.5,-91.62 766.75,-91.62 766.75,-89.62 281.5,-89.62"/>
<text text-anchor="start" x="378" y="-74.33" font-family="arial" font-size="14.00"> </text>
</g>
<!-- OBC &#45; J14&#45;&#45;Harness 15 &#45; EPS UART to OBC -->
<g id="edge1" class="edge">
<title>OBC &#45; J14:e&#45;&#45;Harness 15 &#45; EPS UART to OBC:w</title>
<path fill="none" stroke="#000000" stroke-width="2" d="M137.5,-165.75C201.77,-165.77 217.76,-167.89 281.5,-167.88"/>
<path fill="none" stroke="#8000ff" stroke-width="2" d="M137.5,-167.75C201.51,-167.75 217.49,-169.88 281.5,-169.88"/>
<path fill="none" stroke="#000000" stroke-width="2" d="M137.5,-169.75C201.24,-169.73 217.23,-171.86 281.5,-171.87"/>
</g>
<!-- OBC &#45; J14&#45;&#45;Harness 15 &#45; EPS UART to OBC -->
<g id="edge3" class="edge">
<title>OBC &#45; J14:e&#45;&#45;Harness 15 &#45; EPS UART to OBC:w</title>
<path fill="none" stroke="#000000" stroke-width="2" d="M137.5,-142C201.52,-142 217.52,-142.13 281.5,-142.13"/>
<path fill="none" stroke="#000000" stroke-width="2" d="M137.5,-144C201.5,-144 217.5,-144.13 281.5,-144.12"/>
<path fill="none" stroke="#000000" stroke-width="2" d="M137.5,-146C201.48,-146 217.48,-146.12 281.5,-146.12"/>
</g>
<!-- OBC &#45; J14&#45;&#45;Harness 15 &#45; EPS UART to OBC -->
<g id="edge5" class="edge">
<title>OBC &#45; J14:e&#45;&#45;Harness 15 &#45; EPS UART to OBC:w</title>
<path fill="none" stroke="#000000" stroke-width="2" d="M137.5,-118.25C201.27,-118.26 217.26,-116.39 281.5,-116.38"/>
<path fill="none" stroke="#ff8000" stroke-width="2" d="M137.5,-120.25C201.51,-120.25 217.49,-118.38 281.5,-118.37"/>
<path fill="none" stroke="#000000" stroke-width="2" d="M137.5,-122.25C201.74,-122.24 217.73,-120.36 281.5,-120.37"/>
</g>
<!-- OBC &#45; J14&#45;&#45;Harness 15 &#45; EPS UART to OBC -->
<g id="edge7" class="edge">
<title>OBC &#45; J14:e&#45;&#45;Harness 15 &#45; EPS UART to OBC:w</title>
<path fill="none" stroke="#000000" stroke-width="2" d="M137.5,-94.5C201.05,-94.56 217,-90.68 281.5,-90.63"/>
<path fill="none" stroke="#ffff00" stroke-width="2" d="M137.5,-96.5C201.52,-96.5 217.48,-92.63 281.5,-92.62"/>
<path fill="none" stroke="#000000" stroke-width="2" d="M137.5,-98.5C202,-98.44 217.95,-94.57 281.5,-94.62"/>
</g>
<!-- EPS &#45; J9 -->
<g id="node2" class="node">
<title>EPS &#45; J9</title>
<polygon fill="#ffffff" stroke="black" points="1079,-403.75 910.75,-403.75 910.75,0 1079,0 1079,-403.75"/>
<polygon fill="none" stroke="black" points="910.75,-380 910.75,-403.75 1079,-403.75 1079,-380 910.75,-380"/>
<text text-anchor="start" x="968.25" y="-386.45" font-family="arial" font-size="14.00">EPS &#45; J9</text>
<polygon fill="none" stroke="black" points="910.75,-356.25 910.75,-380 1005,-380 1005,-356.25 910.75,-356.25"/>
<text text-anchor="start" x="929" y="-362.7" font-family="arial" font-size="14.00">Microlock</text>
<polygon fill="none" stroke="black" points="1005,-356.25 1005,-380 1079,-380 1079,-356.25 1005,-356.25"/>
<text text-anchor="start" x="1023.25" y="-362.7" font-family="arial" font-size="14.00">15&#45;pin</text>
<polygon fill="none" stroke="black" points="910.75,-332.5 910.75,-356.25 933.75,-356.25 933.75,-332.5 910.75,-332.5"/>
<text text-anchor="start" x="918.5" y="-338.95" font-family="arial" font-size="14.00">1</text>
<polygon fill="none" stroke="black" points="933.75,-332.5 933.75,-356.25 1079,-356.25 1079,-332.5 933.75,-332.5"/>
<text text-anchor="start" x="971.5" y="-338.95" font-family="arial" font-size="14.00">RAIL_PWR</text>
<polygon fill="none" stroke="black" points="910.75,-308.75 910.75,-332.5 933.75,-332.5 933.75,-308.75 910.75,-308.75"/>
<text text-anchor="start" x="918.5" y="-315.2" font-family="arial" font-size="14.00">2</text>
<polygon fill="none" stroke="black" points="933.75,-308.75 933.75,-332.5 1079,-332.5 1079,-308.75 933.75,-308.75"/>
<text text-anchor="start" x="971.5" y="-315.2" font-family="arial" font-size="14.00">RAIL_PWR</text>
<polygon fill="none" stroke="black" points="910.75,-285 910.75,-308.75 933.75,-308.75 933.75,-285 910.75,-285"/>
<text text-anchor="start" x="918.5" y="-291.45" font-family="arial" font-size="14.00">3</text>
<polygon fill="none" stroke="black" points="933.75,-285 933.75,-308.75 1079,-308.75 1079,-285 933.75,-285"/>
<text text-anchor="start" x="971.5" y="-291.45" font-family="arial" font-size="14.00">RAIL_PWR</text>
<polygon fill="none" stroke="black" points="910.75,-261.25 910.75,-285 933.75,-285 933.75,-261.25 910.75,-261.25"/>
<text text-anchor="start" x="918.5" y="-267.7" font-family="arial" font-size="14.00">4</text>
<polygon fill="none" stroke="black" points="933.75,-261.25 933.75,-285 1079,-285 1079,-261.25 933.75,-261.25"/>
<text text-anchor="start" x="971.5" y="-267.7" font-family="arial" font-size="14.00">RAIL_PWR</text>
<polygon fill="none" stroke="black" points="910.75,-237.5 910.75,-261.25 933.75,-261.25 933.75,-237.5 910.75,-237.5"/>
<text text-anchor="start" x="918.5" y="-243.95" font-family="arial" font-size="14.00">5</text>
<polygon fill="none" stroke="black" points="933.75,-237.5 933.75,-261.25 1079,-261.25 1079,-237.5 933.75,-237.5"/>
<text text-anchor="start" x="991" y="-243.95" font-family="arial" font-size="14.00">GND</text>
<polygon fill="none" stroke="black" points="910.75,-213.75 910.75,-237.5 933.75,-237.5 933.75,-213.75 910.75,-213.75"/>
<text text-anchor="start" x="918.5" y="-220.2" font-family="arial" font-size="14.00">6</text>
<polygon fill="none" stroke="black" points="933.75,-213.75 933.75,-237.5 1079,-237.5 1079,-213.75 933.75,-213.75"/>
<text text-anchor="start" x="991" y="-220.2" font-family="arial" font-size="14.00">GND</text>
<polygon fill="none" stroke="black" points="910.75,-190 910.75,-213.75 933.75,-213.75 933.75,-190 910.75,-190"/>
<text text-anchor="start" x="918.5" y="-196.45" font-family="arial" font-size="14.00">7</text>
<polygon fill="none" stroke="black" points="933.75,-190 933.75,-213.75 1079,-213.75 1079,-190 933.75,-190"/>
<text text-anchor="start" x="991" y="-196.45" font-family="arial" font-size="14.00">GND</text>
<polygon fill="none" stroke="black" points="910.75,-166.25 910.75,-190 933.75,-190 933.75,-166.25 910.75,-166.25"/>
<text text-anchor="start" x="918.5" y="-172.7" font-family="arial" font-size="14.00">8</text>
<polygon fill="none" stroke="black" points="933.75,-166.25 933.75,-190 1079,-190 1079,-166.25 933.75,-166.25"/>
<text text-anchor="start" x="991" y="-172.7" font-family="arial" font-size="14.00">GND</text>
<polygon fill="none" stroke="black" points="910.75,-142.5 910.75,-166.25 933.75,-166.25 933.75,-142.5 910.75,-142.5"/>
<text text-anchor="start" x="918.5" y="-148.95" font-family="arial" font-size="14.00">9</text>
<polygon fill="none" stroke="black" points="933.75,-142.5 933.75,-166.25 1079,-166.25 1079,-142.5 933.75,-142.5"/>
<text text-anchor="start" x="951.25" y="-148.95" font-family="arial" font-size="14.00">UART_RX_H2_21</text>
<polygon fill="none" stroke="black" points="910.75,-118.75 910.75,-142.5 933.75,-142.5 933.75,-118.75 910.75,-118.75"/>
<text text-anchor="start" x="914.75" y="-125.2" font-family="arial" font-size="14.00">10</text>
<polygon fill="none" stroke="black" points="933.75,-118.75 933.75,-142.5 1079,-142.5 1079,-118.75 933.75,-118.75"/>
<text text-anchor="start" x="952" y="-125.2" font-family="arial" font-size="14.00">UART_TX_H2_22</text>
<polygon fill="none" stroke="black" points="910.75,-95 910.75,-118.75 933.75,-118.75 933.75,-95 910.75,-95"/>
<text text-anchor="start" x="915.12" y="-101.45" font-family="arial" font-size="14.00">11</text>
<polygon fill="none" stroke="black" points="933.75,-95 933.75,-118.75 1079,-118.75 1079,-95 933.75,-95"/>
<text text-anchor="start" x="962.12" y="-101.45" font-family="arial" font-size="14.00">I2C_EXT_SCL</text>
<polygon fill="none" stroke="black" points="910.75,-71.25 910.75,-95 933.75,-95 933.75,-71.25 910.75,-71.25"/>
<text text-anchor="start" x="914.75" y="-77.7" font-family="arial" font-size="14.00">12</text>
<polygon fill="none" stroke="black" points="933.75,-71.25 933.75,-95 1079,-95 1079,-71.25 933.75,-71.25"/>
<text text-anchor="start" x="961.38" y="-77.7" font-family="arial" font-size="14.00">I2C_EXT_SDA</text>
<polygon fill="none" stroke="black" points="910.75,-47.5 910.75,-71.25 933.75,-71.25 933.75,-47.5 910.75,-47.5"/>
<text text-anchor="start" x="914.75" y="-53.95" font-family="arial" font-size="14.00">13</text>
<polygon fill="none" stroke="black" points="933.75,-47.5 933.75,-71.25 1079,-71.25 1079,-47.5 933.75,-47.5"/>
<text text-anchor="start" x="991" y="-53.95" font-family="arial" font-size="14.00">GND</text>
<polygon fill="none" stroke="black" points="910.75,-23.75 910.75,-47.5 933.75,-47.5 933.75,-23.75 910.75,-23.75"/>
<text text-anchor="start" x="914.75" y="-30.2" font-family="arial" font-size="14.00">14</text>
<polygon fill="none" stroke="black" points="933.75,-23.75 933.75,-47.5 1079,-47.5 1079,-23.75 933.75,-23.75"/>
<text text-anchor="start" x="937.75" y="-30.2" font-family="arial" font-size="14.00">UART_TX_3V3_OUT1</text>
<polygon fill="none" stroke="black" points="910.75,0 910.75,-23.75 933.75,-23.75 933.75,0 910.75,0"/>
<text text-anchor="start" x="914.75" y="-6.45" font-family="arial" font-size="14.00">15</text>
<polygon fill="none" stroke="black" points="933.75,0 933.75,-23.75 1079,-23.75 1079,0 933.75,0"/>
<text text-anchor="start" x="944.88" y="-6.45" font-family="arial" font-size="14.00">UART_RX_3V3_IN1</text>
</g>
<!-- Harness 15 &#45; EPS UART to OBC&#45;&#45;EPS &#45; J9 -->
<g id="edge2" class="edge">
<title>Harness 15 &#45; EPS UART to OBC:e&#45;&#45;EPS &#45; J9:w</title>
<path fill="none" stroke="#000000" stroke-width="2" d="M766.75,-167.88C852.3,-170.32 821.3,-36.07 910.75,-33.63"/>
<path fill="none" stroke="#8000ff" stroke-width="2" d="M766.75,-169.88C854.25,-169.87 823.25,-35.62 910.75,-35.62"/>
<path fill="none" stroke="#000000" stroke-width="2" d="M766.75,-171.87C856.2,-169.43 825.2,-35.18 910.75,-37.62"/>
</g>
<!-- Harness 15 &#45; EPS UART to OBC&#45;&#45;EPS &#45; J9 -->
<g id="edge4" class="edge">
<title>Harness 15 &#45; EPS UART to OBC:e&#45;&#45;EPS &#45; J9:w</title>
<path fill="none" stroke="#000000" stroke-width="2" d="M766.75,-142.13C851.69,-144.56 821.9,-12.31 910.75,-9.88"/>
<path fill="none" stroke="#000000" stroke-width="2" d="M766.75,-144.12C853.65,-144.12 823.85,-11.88 910.75,-11.88"/>
<path fill="none" stroke="#000000" stroke-width="2" d="M766.75,-146.12C855.6,-143.69 825.81,-11.44 910.75,-13.87"/>
</g>
<!-- Harness 15 &#45; EPS UART to OBC&#45;&#45;EPS &#45; J9 -->
<g id="edge6" class="edge">
<title>Harness 15 &#45; EPS UART to OBC:e&#45;&#45;EPS &#45; J9:w</title>
<path fill="none" stroke="#000000" stroke-width="2" d="M766.75,-116.38C855.22,-118.81 826.18,-249.81 910.75,-247.38"/>
<path fill="none" stroke="#ff8000" stroke-width="2" d="M766.75,-118.38C853.27,-118.38 824.23,-249.38 910.75,-249.38"/>
<path fill="none" stroke="#000000" stroke-width="2" d="M766.75,-120.37C851.32,-117.94 822.28,-248.94 910.75,-251.37"/>
</g>
<!-- Harness 15 &#45; EPS UART to OBC&#45;&#45;EPS &#45; J9 -->
<g id="edge8" class="edge">
<title>Harness 15 &#45; EPS UART to OBC:e&#45;&#45;EPS &#45; J9:w</title>
<path fill="none" stroke="#000000" stroke-width="2" d="M766.75,-90.63C855.82,-93.07 825.58,-226.07 910.75,-223.63"/>
<path fill="none" stroke="#ffff00" stroke-width="2" d="M766.75,-92.63C853.87,-92.63 823.63,-225.62 910.75,-225.62"/>
<path fill="none" stroke="#000000" stroke-width="2" d="M766.75,-94.62C851.92,-92.18 821.68,-225.18 910.75,-227.62"/>
</g>
</g>
</svg>
